G04 #@! TF.GenerationSoftware,KiCad,Pcbnew,7.0.11+dfsg-1build4*
G04 #@! TF.CreationDate,2025-06-25T18:53:50-04:00*
G04 #@! TF.ProjectId,pmod_1553,706d6f64-5f31-4353-9533-2e6b69636164,rev?*
G04 #@! TF.SameCoordinates,Original*
G04 #@! TF.FileFunction,Legend,Bot*
G04 #@! TF.FilePolarity,Positive*
%FSLAX46Y46*%
G04 Gerber Fmt 4.6, Leading zero omitted, Abs format (unit mm)*
G04 Created by KiCad (PCBNEW 7.0.11+dfsg-1build4) date 2025-06-25 18:53:50*
%MOMM*%
%LPD*%
G01*
G04 APERTURE LIST*
%ADD10C,0.150000*%
%ADD11C,0.120000*%
G04 APERTURE END LIST*
D10*
X174968094Y-96954819D02*
X174968094Y-95954819D01*
X174968094Y-95954819D02*
X174587142Y-95954819D01*
X174587142Y-95954819D02*
X174491904Y-96002438D01*
X174491904Y-96002438D02*
X174444285Y-96050057D01*
X174444285Y-96050057D02*
X174396666Y-96145295D01*
X174396666Y-96145295D02*
X174396666Y-96288152D01*
X174396666Y-96288152D02*
X174444285Y-96383390D01*
X174444285Y-96383390D02*
X174491904Y-96431009D01*
X174491904Y-96431009D02*
X174587142Y-96478628D01*
X174587142Y-96478628D02*
X174968094Y-96478628D01*
X174015713Y-96050057D02*
X173968094Y-96002438D01*
X173968094Y-96002438D02*
X173872856Y-95954819D01*
X173872856Y-95954819D02*
X173634761Y-95954819D01*
X173634761Y-95954819D02*
X173539523Y-96002438D01*
X173539523Y-96002438D02*
X173491904Y-96050057D01*
X173491904Y-96050057D02*
X173444285Y-96145295D01*
X173444285Y-96145295D02*
X173444285Y-96240533D01*
X173444285Y-96240533D02*
X173491904Y-96383390D01*
X173491904Y-96383390D02*
X174063332Y-96954819D01*
X174063332Y-96954819D02*
X173444285Y-96954819D01*
D11*
X183675000Y-87325000D02*
G75*
G03*
X182405000Y-87325000I-635000J0D01*
G01*
X182405000Y-87325000D02*
G75*
G03*
X183675000Y-87325000I635000J0D01*
G01*
X175420000Y-86055000D02*
X184945000Y-86055000D01*
X175420000Y-94945000D02*
X175420000Y-86055000D01*
X184945000Y-94945000D02*
X175420000Y-94945000D01*
X184945000Y-86055000D02*
X184945000Y-94945000D01*
M02*
