M48
; DRILL file {KiCad 7.0.11+dfsg-1build4} date Wed 25 Jun 2025 06:53:57 PM EDT
; FORMAT={-:-/ absolute / inch / decimal}
; #@! TF.CreationDate,2025-06-25T18:53:57-04:00
; #@! TF.GenerationSoftware,Kicad,Pcbnew,7.0.11+dfsg-1build4
; #@! TF.FileFunction,MixedPlating,1,2
FMAT,2
INCH
; #@! TA.AperFunction,Plated,PTH,ComponentDrill
T1C0.0299
; #@! TA.AperFunction,Plated,PTH,ViaDrill
T2C0.0310
; #@! TA.AperFunction,Plated,PTH,ComponentDrill
T3C0.0315
; #@! TA.AperFunction,Plated,PTH,ComponentDrill
T4C0.0394
; #@! TA.AperFunction,Plated,PTH,ComponentDrill
T5C0.0472
; #@! TA.AperFunction,Plated,PTH,ComponentDrill
T6C0.0512
; #@! TA.AperFunction,NonPlated,NPTH,ComponentDrill
T7C0.0866
%
G90
G05
T1
X4.311Y-4.1339
X4.411Y-4.1339
X4.511Y-4.1339
X4.611Y-4.1339
T2
X5.4134Y-3.5039
X5.7283Y-3.5039
X5.8071Y-3.8189
X5.9055Y-3.2874
X6.2205Y-3.8189
X6.2599Y-3.504
X6.4764Y-3.6024
X6.6142Y-3.2874
X6.7323Y-3.5039
X6.7323Y-3.6024
T3
X4.0354Y-4.0354
X4.0354Y-4.1339
X4.1244Y-3.0709
X4.1244Y-3.3709
X4.1929Y-3.4843
X4.1929Y-3.7843
X4.2244Y-3.0709
X4.2244Y-3.3709
X4.3244Y-3.0709
X4.3244Y-3.3709
X4.3898Y-3.4843
X4.3898Y-3.7843
X4.4244Y-3.0709
X4.4244Y-3.3709
X4.5228Y-3.6811
X4.5228Y-3.8189
X4.5244Y-3.0709
X4.5244Y-3.3709
X4.5669Y-3.5039
X4.6244Y-3.0709
X4.6244Y-3.3709
X4.7244Y-3.0709
X4.7244Y-3.3709
X4.7638Y-3.5039
X4.8228Y-3.6811
X4.8228Y-3.8189
X4.8693Y-3.1055
X4.8693Y-3.2055
X4.8693Y-3.3055
X4.8693Y-3.4055
X4.9213Y-3.5433
X4.9803Y-3.8386
X4.9803Y-3.9386
X4.9803Y-4.0386
X4.9803Y-4.1386
X5.0315Y-3.7008
X5.1181Y-3.5433
X5.1693Y-3.1055
X5.1693Y-3.2055
X5.1693Y-3.3055
X5.1693Y-3.4055
X5.2283Y-3.7008
X5.2803Y-3.8386
X5.2803Y-3.9386
X5.2803Y-4.0386
X5.2803Y-4.1386
X5.3299Y-3.0906
X5.3299Y-3.4055
X5.3937Y-3.7157
X5.3937Y-4.0157
X5.5315Y-3.7157
X5.5315Y-4.0157
X5.6299Y-3.0906
X5.6299Y-3.4055
X5.6693Y-3.6417
X5.6693Y-3.8386
X5.6693Y-3.937
X5.6693Y-4.1339
X5.9142Y-3.4055
X5.9142Y-3.7055
X6.0142Y-3.4055
X6.0142Y-3.7055
X6.1142Y-3.4055
X6.1142Y-3.7055
X6.2142Y-3.4055
X6.2142Y-3.7055
X6.3142Y-3.4055
X6.3142Y-3.7055
X6.3189Y-3.8189
X6.3189Y-4.0157
X6.4142Y-3.4055
X6.4142Y-3.7055
X6.5142Y-3.4055
X6.5142Y-3.7055
X6.6142Y-3.4055
X6.6142Y-3.7055
X7.0079Y-3.0709
X7.2047Y-3.0709
X7.4606Y-3.4646
X7.4606Y-3.6417
X7.7606Y-3.4646
X7.7606Y-3.6417
T4
X3.8764Y-3.378
X3.8764Y-3.478
X3.8764Y-3.578
X3.8764Y-3.678
X3.8764Y-3.778
X3.8764Y-3.878
X3.9764Y-3.378
X3.9764Y-3.478
X3.9764Y-3.578
X3.9764Y-3.678
X3.9764Y-3.778
X3.9764Y-3.878
X8.0315Y-3.089
X8.0315Y-3.189
T5
X8.0512Y-3.9764
X8.0512Y-4.0764
T6
X8.0512Y-3.4646
X8.0512Y-3.6614
T7
X7.6378Y-3.0315
X7.6378Y-4.1535
M30
