G04 #@! TF.GenerationSoftware,KiCad,Pcbnew,7.0.11+dfsg-1build4*
G04 #@! TF.CreationDate,2025-06-25T18:53:50-04:00*
G04 #@! TF.ProjectId,pmod_1553,706d6f64-5f31-4353-9533-2e6b69636164,rev?*
G04 #@! TF.SameCoordinates,Original*
G04 #@! TF.FileFunction,Legend,Top*
G04 #@! TF.FilePolarity,Positive*
%FSLAX46Y46*%
G04 Gerber Fmt 4.6, Leading zero omitted, Abs format (unit mm)*
G04 Created by KiCad (PCBNEW 7.0.11+dfsg-1build4) date 2025-06-25 18:53:50*
%MOMM*%
%LPD*%
G01*
G04 APERTURE LIST*
%ADD10C,0.150000*%
%ADD11C,0.254000*%
%ADD12C,0.120000*%
%ADD13C,0.010000*%
%ADD14C,0.200000*%
%ADD15C,0.100000*%
G04 APERTURE END LIST*
D10*
X178745057Y-100309523D02*
X178697438Y-100261904D01*
X178697438Y-100261904D02*
X178649819Y-100166666D01*
X178649819Y-100166666D02*
X178649819Y-99928571D01*
X178649819Y-99928571D02*
X178697438Y-99833333D01*
X178697438Y-99833333D02*
X178745057Y-99785714D01*
X178745057Y-99785714D02*
X178840295Y-99738095D01*
X178840295Y-99738095D02*
X178935533Y-99738095D01*
X178935533Y-99738095D02*
X179078390Y-99785714D01*
X179078390Y-99785714D02*
X179649819Y-100357142D01*
X179649819Y-100357142D02*
X179649819Y-99738095D01*
X178649819Y-99119047D02*
X178649819Y-99023809D01*
X178649819Y-99023809D02*
X178697438Y-98928571D01*
X178697438Y-98928571D02*
X178745057Y-98880952D01*
X178745057Y-98880952D02*
X178840295Y-98833333D01*
X178840295Y-98833333D02*
X179030771Y-98785714D01*
X179030771Y-98785714D02*
X179268866Y-98785714D01*
X179268866Y-98785714D02*
X179459342Y-98833333D01*
X179459342Y-98833333D02*
X179554580Y-98880952D01*
X179554580Y-98880952D02*
X179602200Y-98928571D01*
X179602200Y-98928571D02*
X179649819Y-99023809D01*
X179649819Y-99023809D02*
X179649819Y-99119047D01*
X179649819Y-99119047D02*
X179602200Y-99214285D01*
X179602200Y-99214285D02*
X179554580Y-99261904D01*
X179554580Y-99261904D02*
X179459342Y-99309523D01*
X179459342Y-99309523D02*
X179268866Y-99357142D01*
X179268866Y-99357142D02*
X179030771Y-99357142D01*
X179030771Y-99357142D02*
X178840295Y-99309523D01*
X178840295Y-99309523D02*
X178745057Y-99261904D01*
X178745057Y-99261904D02*
X178697438Y-99214285D01*
X178697438Y-99214285D02*
X178649819Y-99119047D01*
X178745057Y-98404761D02*
X178697438Y-98357142D01*
X178697438Y-98357142D02*
X178649819Y-98261904D01*
X178649819Y-98261904D02*
X178649819Y-98023809D01*
X178649819Y-98023809D02*
X178697438Y-97928571D01*
X178697438Y-97928571D02*
X178745057Y-97880952D01*
X178745057Y-97880952D02*
X178840295Y-97833333D01*
X178840295Y-97833333D02*
X178935533Y-97833333D01*
X178935533Y-97833333D02*
X179078390Y-97880952D01*
X179078390Y-97880952D02*
X179649819Y-98452380D01*
X179649819Y-98452380D02*
X179649819Y-97833333D01*
X179649819Y-96880952D02*
X179649819Y-97452380D01*
X179649819Y-97166666D02*
X178649819Y-97166666D01*
X178649819Y-97166666D02*
X178792676Y-97261904D01*
X178792676Y-97261904D02*
X178887914Y-97357142D01*
X178887914Y-97357142D02*
X178935533Y-97452380D01*
X178649819Y-95404761D02*
X179364104Y-95404761D01*
X179364104Y-95404761D02*
X179506961Y-95452380D01*
X179506961Y-95452380D02*
X179602200Y-95547618D01*
X179602200Y-95547618D02*
X179649819Y-95690475D01*
X179649819Y-95690475D02*
X179649819Y-95785713D01*
X179364104Y-94976189D02*
X179364104Y-94499999D01*
X179649819Y-95071427D02*
X178649819Y-94738094D01*
X178649819Y-94738094D02*
X179649819Y-94404761D01*
X179173628Y-93880951D02*
X179649819Y-93880951D01*
X178649819Y-94214284D02*
X179173628Y-93880951D01*
X179173628Y-93880951D02*
X178649819Y-93547618D01*
X179554580Y-91880951D02*
X179602200Y-91928570D01*
X179602200Y-91928570D02*
X179649819Y-92071427D01*
X179649819Y-92071427D02*
X179649819Y-92166665D01*
X179649819Y-92166665D02*
X179602200Y-92309522D01*
X179602200Y-92309522D02*
X179506961Y-92404760D01*
X179506961Y-92404760D02*
X179411723Y-92452379D01*
X179411723Y-92452379D02*
X179221247Y-92499998D01*
X179221247Y-92499998D02*
X179078390Y-92499998D01*
X179078390Y-92499998D02*
X178887914Y-92452379D01*
X178887914Y-92452379D02*
X178792676Y-92404760D01*
X178792676Y-92404760D02*
X178697438Y-92309522D01*
X178697438Y-92309522D02*
X178649819Y-92166665D01*
X178649819Y-92166665D02*
X178649819Y-92071427D01*
X178649819Y-92071427D02*
X178697438Y-91928570D01*
X178697438Y-91928570D02*
X178745057Y-91880951D01*
X178649819Y-91261903D02*
X178649819Y-91071427D01*
X178649819Y-91071427D02*
X178697438Y-90976189D01*
X178697438Y-90976189D02*
X178792676Y-90880951D01*
X178792676Y-90880951D02*
X178983152Y-90833332D01*
X178983152Y-90833332D02*
X179316485Y-90833332D01*
X179316485Y-90833332D02*
X179506961Y-90880951D01*
X179506961Y-90880951D02*
X179602200Y-90976189D01*
X179602200Y-90976189D02*
X179649819Y-91071427D01*
X179649819Y-91071427D02*
X179649819Y-91261903D01*
X179649819Y-91261903D02*
X179602200Y-91357141D01*
X179602200Y-91357141D02*
X179506961Y-91452379D01*
X179506961Y-91452379D02*
X179316485Y-91499998D01*
X179316485Y-91499998D02*
X178983152Y-91499998D01*
X178983152Y-91499998D02*
X178792676Y-91452379D01*
X178792676Y-91452379D02*
X178697438Y-91357141D01*
X178697438Y-91357141D02*
X178649819Y-91261903D01*
X179649819Y-90404760D02*
X178649819Y-90404760D01*
X178649819Y-90404760D02*
X179649819Y-89833332D01*
X179649819Y-89833332D02*
X178649819Y-89833332D01*
X178649819Y-89499998D02*
X179649819Y-89166665D01*
X179649819Y-89166665D02*
X178649819Y-88833332D01*
X179126009Y-88499998D02*
X179126009Y-88166665D01*
X179649819Y-88023808D02*
X179649819Y-88499998D01*
X179649819Y-88499998D02*
X178649819Y-88499998D01*
X178649819Y-88499998D02*
X178649819Y-88023808D01*
X179649819Y-87023808D02*
X179173628Y-87357141D01*
X179649819Y-87595236D02*
X178649819Y-87595236D01*
X178649819Y-87595236D02*
X178649819Y-87214284D01*
X178649819Y-87214284D02*
X178697438Y-87119046D01*
X178697438Y-87119046D02*
X178745057Y-87071427D01*
X178745057Y-87071427D02*
X178840295Y-87023808D01*
X178840295Y-87023808D02*
X178983152Y-87023808D01*
X178983152Y-87023808D02*
X179078390Y-87071427D01*
X179078390Y-87071427D02*
X179126009Y-87119046D01*
X179126009Y-87119046D02*
X179173628Y-87214284D01*
X179173628Y-87214284D02*
X179173628Y-87595236D01*
X178649819Y-86738093D02*
X178649819Y-86166665D01*
X179649819Y-86452379D02*
X178649819Y-86452379D01*
X179649819Y-85833331D02*
X178649819Y-85833331D01*
X179649819Y-85357141D02*
X178649819Y-85357141D01*
X178649819Y-85357141D02*
X179649819Y-84785713D01*
X179649819Y-84785713D02*
X178649819Y-84785713D01*
X178649819Y-84119046D02*
X178649819Y-83928570D01*
X178649819Y-83928570D02*
X178697438Y-83833332D01*
X178697438Y-83833332D02*
X178792676Y-83738094D01*
X178792676Y-83738094D02*
X178983152Y-83690475D01*
X178983152Y-83690475D02*
X179316485Y-83690475D01*
X179316485Y-83690475D02*
X179506961Y-83738094D01*
X179506961Y-83738094D02*
X179602200Y-83833332D01*
X179602200Y-83833332D02*
X179649819Y-83928570D01*
X179649819Y-83928570D02*
X179649819Y-84119046D01*
X179649819Y-84119046D02*
X179602200Y-84214284D01*
X179602200Y-84214284D02*
X179506961Y-84309522D01*
X179506961Y-84309522D02*
X179316485Y-84357141D01*
X179316485Y-84357141D02*
X178983152Y-84357141D01*
X178983152Y-84357141D02*
X178792676Y-84309522D01*
X178792676Y-84309522D02*
X178697438Y-84214284D01*
X178697438Y-84214284D02*
X178649819Y-84119046D01*
X181259819Y-99952380D02*
X180259819Y-99952380D01*
X180259819Y-99952380D02*
X180974104Y-99619047D01*
X180974104Y-99619047D02*
X180259819Y-99285714D01*
X180259819Y-99285714D02*
X181259819Y-99285714D01*
X181259819Y-98809523D02*
X180259819Y-98809523D01*
X181259819Y-97857143D02*
X181259819Y-98333333D01*
X181259819Y-98333333D02*
X180259819Y-98333333D01*
X180878866Y-97523809D02*
X180878866Y-96761905D01*
X181212200Y-96333333D02*
X181259819Y-96190476D01*
X181259819Y-96190476D02*
X181259819Y-95952381D01*
X181259819Y-95952381D02*
X181212200Y-95857143D01*
X181212200Y-95857143D02*
X181164580Y-95809524D01*
X181164580Y-95809524D02*
X181069342Y-95761905D01*
X181069342Y-95761905D02*
X180974104Y-95761905D01*
X180974104Y-95761905D02*
X180878866Y-95809524D01*
X180878866Y-95809524D02*
X180831247Y-95857143D01*
X180831247Y-95857143D02*
X180783628Y-95952381D01*
X180783628Y-95952381D02*
X180736009Y-96142857D01*
X180736009Y-96142857D02*
X180688390Y-96238095D01*
X180688390Y-96238095D02*
X180640771Y-96285714D01*
X180640771Y-96285714D02*
X180545533Y-96333333D01*
X180545533Y-96333333D02*
X180450295Y-96333333D01*
X180450295Y-96333333D02*
X180355057Y-96285714D01*
X180355057Y-96285714D02*
X180307438Y-96238095D01*
X180307438Y-96238095D02*
X180259819Y-96142857D01*
X180259819Y-96142857D02*
X180259819Y-95904762D01*
X180259819Y-95904762D02*
X180307438Y-95761905D01*
X180259819Y-95476190D02*
X180259819Y-94904762D01*
X181259819Y-95190476D02*
X180259819Y-95190476D01*
X181259819Y-94571428D02*
X180259819Y-94571428D01*
X180259819Y-94571428D02*
X180259819Y-94333333D01*
X180259819Y-94333333D02*
X180307438Y-94190476D01*
X180307438Y-94190476D02*
X180402676Y-94095238D01*
X180402676Y-94095238D02*
X180497914Y-94047619D01*
X180497914Y-94047619D02*
X180688390Y-94000000D01*
X180688390Y-94000000D02*
X180831247Y-94000000D01*
X180831247Y-94000000D02*
X181021723Y-94047619D01*
X181021723Y-94047619D02*
X181116961Y-94095238D01*
X181116961Y-94095238D02*
X181212200Y-94190476D01*
X181212200Y-94190476D02*
X181259819Y-94333333D01*
X181259819Y-94333333D02*
X181259819Y-94571428D01*
X180878866Y-93571428D02*
X180878866Y-92809524D01*
X181259819Y-91809524D02*
X181259819Y-92380952D01*
X181259819Y-92095238D02*
X180259819Y-92095238D01*
X180259819Y-92095238D02*
X180402676Y-92190476D01*
X180402676Y-92190476D02*
X180497914Y-92285714D01*
X180497914Y-92285714D02*
X180545533Y-92380952D01*
X180259819Y-90904762D02*
X180259819Y-91380952D01*
X180259819Y-91380952D02*
X180736009Y-91428571D01*
X180736009Y-91428571D02*
X180688390Y-91380952D01*
X180688390Y-91380952D02*
X180640771Y-91285714D01*
X180640771Y-91285714D02*
X180640771Y-91047619D01*
X180640771Y-91047619D02*
X180688390Y-90952381D01*
X180688390Y-90952381D02*
X180736009Y-90904762D01*
X180736009Y-90904762D02*
X180831247Y-90857143D01*
X180831247Y-90857143D02*
X181069342Y-90857143D01*
X181069342Y-90857143D02*
X181164580Y-90904762D01*
X181164580Y-90904762D02*
X181212200Y-90952381D01*
X181212200Y-90952381D02*
X181259819Y-91047619D01*
X181259819Y-91047619D02*
X181259819Y-91285714D01*
X181259819Y-91285714D02*
X181212200Y-91380952D01*
X181212200Y-91380952D02*
X181164580Y-91428571D01*
X180259819Y-89952381D02*
X180259819Y-90428571D01*
X180259819Y-90428571D02*
X180736009Y-90476190D01*
X180736009Y-90476190D02*
X180688390Y-90428571D01*
X180688390Y-90428571D02*
X180640771Y-90333333D01*
X180640771Y-90333333D02*
X180640771Y-90095238D01*
X180640771Y-90095238D02*
X180688390Y-90000000D01*
X180688390Y-90000000D02*
X180736009Y-89952381D01*
X180736009Y-89952381D02*
X180831247Y-89904762D01*
X180831247Y-89904762D02*
X181069342Y-89904762D01*
X181069342Y-89904762D02*
X181164580Y-89952381D01*
X181164580Y-89952381D02*
X181212200Y-90000000D01*
X181212200Y-90000000D02*
X181259819Y-90095238D01*
X181259819Y-90095238D02*
X181259819Y-90333333D01*
X181259819Y-90333333D02*
X181212200Y-90428571D01*
X181212200Y-90428571D02*
X181164580Y-90476190D01*
X180259819Y-89571428D02*
X180259819Y-88952381D01*
X180259819Y-88952381D02*
X180640771Y-89285714D01*
X180640771Y-89285714D02*
X180640771Y-89142857D01*
X180640771Y-89142857D02*
X180688390Y-89047619D01*
X180688390Y-89047619D02*
X180736009Y-89000000D01*
X180736009Y-89000000D02*
X180831247Y-88952381D01*
X180831247Y-88952381D02*
X181069342Y-88952381D01*
X181069342Y-88952381D02*
X181164580Y-89000000D01*
X181164580Y-89000000D02*
X181212200Y-89047619D01*
X181212200Y-89047619D02*
X181259819Y-89142857D01*
X181259819Y-89142857D02*
X181259819Y-89428571D01*
X181259819Y-89428571D02*
X181212200Y-89523809D01*
X181212200Y-89523809D02*
X181164580Y-89571428D01*
X181259819Y-87761904D02*
X180259819Y-87761904D01*
X180259819Y-87761904D02*
X180259819Y-87380952D01*
X180259819Y-87380952D02*
X180307438Y-87285714D01*
X180307438Y-87285714D02*
X180355057Y-87238095D01*
X180355057Y-87238095D02*
X180450295Y-87190476D01*
X180450295Y-87190476D02*
X180593152Y-87190476D01*
X180593152Y-87190476D02*
X180688390Y-87238095D01*
X180688390Y-87238095D02*
X180736009Y-87285714D01*
X180736009Y-87285714D02*
X180783628Y-87380952D01*
X180783628Y-87380952D02*
X180783628Y-87761904D01*
X181259819Y-86761904D02*
X180259819Y-86761904D01*
X180259819Y-86761904D02*
X180974104Y-86428571D01*
X180974104Y-86428571D02*
X180259819Y-86095238D01*
X180259819Y-86095238D02*
X181259819Y-86095238D01*
X180259819Y-85428571D02*
X180259819Y-85238095D01*
X180259819Y-85238095D02*
X180307438Y-85142857D01*
X180307438Y-85142857D02*
X180402676Y-85047619D01*
X180402676Y-85047619D02*
X180593152Y-85000000D01*
X180593152Y-85000000D02*
X180926485Y-85000000D01*
X180926485Y-85000000D02*
X181116961Y-85047619D01*
X181116961Y-85047619D02*
X181212200Y-85142857D01*
X181212200Y-85142857D02*
X181259819Y-85238095D01*
X181259819Y-85238095D02*
X181259819Y-85428571D01*
X181259819Y-85428571D02*
X181212200Y-85523809D01*
X181212200Y-85523809D02*
X181116961Y-85619047D01*
X181116961Y-85619047D02*
X180926485Y-85666666D01*
X180926485Y-85666666D02*
X180593152Y-85666666D01*
X180593152Y-85666666D02*
X180402676Y-85619047D01*
X180402676Y-85619047D02*
X180307438Y-85523809D01*
X180307438Y-85523809D02*
X180259819Y-85428571D01*
X181259819Y-84571428D02*
X180259819Y-84571428D01*
X180259819Y-84571428D02*
X180259819Y-84333333D01*
X180259819Y-84333333D02*
X180307438Y-84190476D01*
X180307438Y-84190476D02*
X180402676Y-84095238D01*
X180402676Y-84095238D02*
X180497914Y-84047619D01*
X180497914Y-84047619D02*
X180688390Y-84000000D01*
X180688390Y-84000000D02*
X180831247Y-84000000D01*
X180831247Y-84000000D02*
X181021723Y-84047619D01*
X181021723Y-84047619D02*
X181116961Y-84095238D01*
X181116961Y-84095238D02*
X181212200Y-84190476D01*
X181212200Y-84190476D02*
X181259819Y-84333333D01*
X181259819Y-84333333D02*
X181259819Y-84571428D01*
X170784819Y-91286189D02*
X169784819Y-91286189D01*
X170689580Y-90238571D02*
X170737200Y-90286190D01*
X170737200Y-90286190D02*
X170784819Y-90429047D01*
X170784819Y-90429047D02*
X170784819Y-90524285D01*
X170784819Y-90524285D02*
X170737200Y-90667142D01*
X170737200Y-90667142D02*
X170641961Y-90762380D01*
X170641961Y-90762380D02*
X170546723Y-90809999D01*
X170546723Y-90809999D02*
X170356247Y-90857618D01*
X170356247Y-90857618D02*
X170213390Y-90857618D01*
X170213390Y-90857618D02*
X170022914Y-90809999D01*
X170022914Y-90809999D02*
X169927676Y-90762380D01*
X169927676Y-90762380D02*
X169832438Y-90667142D01*
X169832438Y-90667142D02*
X169784819Y-90524285D01*
X169784819Y-90524285D02*
X169784819Y-90429047D01*
X169784819Y-90429047D02*
X169832438Y-90286190D01*
X169832438Y-90286190D02*
X169880057Y-90238571D01*
X170784819Y-89286190D02*
X170784819Y-89857618D01*
X170784819Y-89571904D02*
X169784819Y-89571904D01*
X169784819Y-89571904D02*
X169927676Y-89667142D01*
X169927676Y-89667142D02*
X170022914Y-89762380D01*
X170022914Y-89762380D02*
X170070533Y-89857618D01*
X163359580Y-100142857D02*
X163407200Y-100190476D01*
X163407200Y-100190476D02*
X163454819Y-100333333D01*
X163454819Y-100333333D02*
X163454819Y-100428571D01*
X163454819Y-100428571D02*
X163407200Y-100571428D01*
X163407200Y-100571428D02*
X163311961Y-100666666D01*
X163311961Y-100666666D02*
X163216723Y-100714285D01*
X163216723Y-100714285D02*
X163026247Y-100761904D01*
X163026247Y-100761904D02*
X162883390Y-100761904D01*
X162883390Y-100761904D02*
X162692914Y-100714285D01*
X162692914Y-100714285D02*
X162597676Y-100666666D01*
X162597676Y-100666666D02*
X162502438Y-100571428D01*
X162502438Y-100571428D02*
X162454819Y-100428571D01*
X162454819Y-100428571D02*
X162454819Y-100333333D01*
X162454819Y-100333333D02*
X162502438Y-100190476D01*
X162502438Y-100190476D02*
X162550057Y-100142857D01*
X163454819Y-99190476D02*
X163454819Y-99761904D01*
X163454819Y-99476190D02*
X162454819Y-99476190D01*
X162454819Y-99476190D02*
X162597676Y-99571428D01*
X162597676Y-99571428D02*
X162692914Y-99666666D01*
X162692914Y-99666666D02*
X162740533Y-99761904D01*
X162454819Y-98571428D02*
X162454819Y-98476190D01*
X162454819Y-98476190D02*
X162502438Y-98380952D01*
X162502438Y-98380952D02*
X162550057Y-98333333D01*
X162550057Y-98333333D02*
X162645295Y-98285714D01*
X162645295Y-98285714D02*
X162835771Y-98238095D01*
X162835771Y-98238095D02*
X163073866Y-98238095D01*
X163073866Y-98238095D02*
X163264342Y-98285714D01*
X163264342Y-98285714D02*
X163359580Y-98333333D01*
X163359580Y-98333333D02*
X163407200Y-98380952D01*
X163407200Y-98380952D02*
X163454819Y-98476190D01*
X163454819Y-98476190D02*
X163454819Y-98571428D01*
X163454819Y-98571428D02*
X163407200Y-98666666D01*
X163407200Y-98666666D02*
X163359580Y-98714285D01*
X163359580Y-98714285D02*
X163264342Y-98761904D01*
X163264342Y-98761904D02*
X163073866Y-98809523D01*
X163073866Y-98809523D02*
X162835771Y-98809523D01*
X162835771Y-98809523D02*
X162645295Y-98761904D01*
X162645295Y-98761904D02*
X162550057Y-98714285D01*
X162550057Y-98714285D02*
X162502438Y-98666666D01*
X162502438Y-98666666D02*
X162454819Y-98571428D01*
X101454819Y-78261904D02*
X102264342Y-78261904D01*
X102264342Y-78261904D02*
X102359580Y-78214285D01*
X102359580Y-78214285D02*
X102407200Y-78166666D01*
X102407200Y-78166666D02*
X102454819Y-78071428D01*
X102454819Y-78071428D02*
X102454819Y-77880952D01*
X102454819Y-77880952D02*
X102407200Y-77785714D01*
X102407200Y-77785714D02*
X102359580Y-77738095D01*
X102359580Y-77738095D02*
X102264342Y-77690476D01*
X102264342Y-77690476D02*
X101454819Y-77690476D01*
X102454819Y-76690476D02*
X102454819Y-77261904D01*
X102454819Y-76976190D02*
X101454819Y-76976190D01*
X101454819Y-76976190D02*
X101597676Y-77071428D01*
X101597676Y-77071428D02*
X101692914Y-77166666D01*
X101692914Y-77166666D02*
X101740533Y-77261904D01*
X113833333Y-89359580D02*
X113785714Y-89407200D01*
X113785714Y-89407200D02*
X113642857Y-89454819D01*
X113642857Y-89454819D02*
X113547619Y-89454819D01*
X113547619Y-89454819D02*
X113404762Y-89407200D01*
X113404762Y-89407200D02*
X113309524Y-89311961D01*
X113309524Y-89311961D02*
X113261905Y-89216723D01*
X113261905Y-89216723D02*
X113214286Y-89026247D01*
X113214286Y-89026247D02*
X113214286Y-88883390D01*
X113214286Y-88883390D02*
X113261905Y-88692914D01*
X113261905Y-88692914D02*
X113309524Y-88597676D01*
X113309524Y-88597676D02*
X113404762Y-88502438D01*
X113404762Y-88502438D02*
X113547619Y-88454819D01*
X113547619Y-88454819D02*
X113642857Y-88454819D01*
X113642857Y-88454819D02*
X113785714Y-88502438D01*
X113785714Y-88502438D02*
X113833333Y-88550057D01*
X114738095Y-88454819D02*
X114261905Y-88454819D01*
X114261905Y-88454819D02*
X114214286Y-88931009D01*
X114214286Y-88931009D02*
X114261905Y-88883390D01*
X114261905Y-88883390D02*
X114357143Y-88835771D01*
X114357143Y-88835771D02*
X114595238Y-88835771D01*
X114595238Y-88835771D02*
X114690476Y-88883390D01*
X114690476Y-88883390D02*
X114738095Y-88931009D01*
X114738095Y-88931009D02*
X114785714Y-89026247D01*
X114785714Y-89026247D02*
X114785714Y-89264342D01*
X114785714Y-89264342D02*
X114738095Y-89359580D01*
X114738095Y-89359580D02*
X114690476Y-89407200D01*
X114690476Y-89407200D02*
X114595238Y-89454819D01*
X114595238Y-89454819D02*
X114357143Y-89454819D01*
X114357143Y-89454819D02*
X114261905Y-89407200D01*
X114261905Y-89407200D02*
X114214286Y-89359580D01*
X205954819Y-80333333D02*
X206669104Y-80333333D01*
X206669104Y-80333333D02*
X206811961Y-80380952D01*
X206811961Y-80380952D02*
X206907200Y-80476190D01*
X206907200Y-80476190D02*
X206954819Y-80619047D01*
X206954819Y-80619047D02*
X206954819Y-80714285D01*
X205954819Y-79952380D02*
X205954819Y-79333333D01*
X205954819Y-79333333D02*
X206335771Y-79666666D01*
X206335771Y-79666666D02*
X206335771Y-79523809D01*
X206335771Y-79523809D02*
X206383390Y-79428571D01*
X206383390Y-79428571D02*
X206431009Y-79380952D01*
X206431009Y-79380952D02*
X206526247Y-79333333D01*
X206526247Y-79333333D02*
X206764342Y-79333333D01*
X206764342Y-79333333D02*
X206859580Y-79380952D01*
X206859580Y-79380952D02*
X206907200Y-79428571D01*
X206907200Y-79428571D02*
X206954819Y-79523809D01*
X206954819Y-79523809D02*
X206954819Y-79809523D01*
X206954819Y-79809523D02*
X206907200Y-79904761D01*
X206907200Y-79904761D02*
X206859580Y-79952380D01*
X199954819Y-102833333D02*
X200669104Y-102833333D01*
X200669104Y-102833333D02*
X200811961Y-102880952D01*
X200811961Y-102880952D02*
X200907200Y-102976190D01*
X200907200Y-102976190D02*
X200954819Y-103119047D01*
X200954819Y-103119047D02*
X200954819Y-103214285D01*
X200050057Y-102404761D02*
X200002438Y-102357142D01*
X200002438Y-102357142D02*
X199954819Y-102261904D01*
X199954819Y-102261904D02*
X199954819Y-102023809D01*
X199954819Y-102023809D02*
X200002438Y-101928571D01*
X200002438Y-101928571D02*
X200050057Y-101880952D01*
X200050057Y-101880952D02*
X200145295Y-101833333D01*
X200145295Y-101833333D02*
X200240533Y-101833333D01*
X200240533Y-101833333D02*
X200383390Y-101880952D01*
X200383390Y-101880952D02*
X200954819Y-102452380D01*
X200954819Y-102452380D02*
X200954819Y-101833333D01*
X175833333Y-78359580D02*
X175785714Y-78407200D01*
X175785714Y-78407200D02*
X175642857Y-78454819D01*
X175642857Y-78454819D02*
X175547619Y-78454819D01*
X175547619Y-78454819D02*
X175404762Y-78407200D01*
X175404762Y-78407200D02*
X175309524Y-78311961D01*
X175309524Y-78311961D02*
X175261905Y-78216723D01*
X175261905Y-78216723D02*
X175214286Y-78026247D01*
X175214286Y-78026247D02*
X175214286Y-77883390D01*
X175214286Y-77883390D02*
X175261905Y-77692914D01*
X175261905Y-77692914D02*
X175309524Y-77597676D01*
X175309524Y-77597676D02*
X175404762Y-77502438D01*
X175404762Y-77502438D02*
X175547619Y-77454819D01*
X175547619Y-77454819D02*
X175642857Y-77454819D01*
X175642857Y-77454819D02*
X175785714Y-77502438D01*
X175785714Y-77502438D02*
X175833333Y-77550057D01*
X176214286Y-77550057D02*
X176261905Y-77502438D01*
X176261905Y-77502438D02*
X176357143Y-77454819D01*
X176357143Y-77454819D02*
X176595238Y-77454819D01*
X176595238Y-77454819D02*
X176690476Y-77502438D01*
X176690476Y-77502438D02*
X176738095Y-77550057D01*
X176738095Y-77550057D02*
X176785714Y-77645295D01*
X176785714Y-77645295D02*
X176785714Y-77740533D01*
X176785714Y-77740533D02*
X176738095Y-77883390D01*
X176738095Y-77883390D02*
X176166667Y-78454819D01*
X176166667Y-78454819D02*
X176785714Y-78454819D01*
X196238095Y-77454819D02*
X196238095Y-76454819D01*
X196238095Y-76931009D02*
X196809523Y-76931009D01*
X196809523Y-77454819D02*
X196809523Y-76454819D01*
X197238095Y-76550057D02*
X197285714Y-76502438D01*
X197285714Y-76502438D02*
X197380952Y-76454819D01*
X197380952Y-76454819D02*
X197619047Y-76454819D01*
X197619047Y-76454819D02*
X197714285Y-76502438D01*
X197714285Y-76502438D02*
X197761904Y-76550057D01*
X197761904Y-76550057D02*
X197809523Y-76645295D01*
X197809523Y-76645295D02*
X197809523Y-76740533D01*
X197809523Y-76740533D02*
X197761904Y-76883390D01*
X197761904Y-76883390D02*
X197190476Y-77454819D01*
X197190476Y-77454819D02*
X197809523Y-77454819D01*
X196238095Y-105954819D02*
X196238095Y-104954819D01*
X196238095Y-105431009D02*
X196809523Y-105431009D01*
X196809523Y-105954819D02*
X196809523Y-104954819D01*
X197809523Y-105954819D02*
X197238095Y-105954819D01*
X197523809Y-105954819D02*
X197523809Y-104954819D01*
X197523809Y-104954819D02*
X197428571Y-105097676D01*
X197428571Y-105097676D02*
X197333333Y-105192914D01*
X197333333Y-105192914D02*
X197238095Y-105240533D01*
X122833333Y-90359580D02*
X122785714Y-90407200D01*
X122785714Y-90407200D02*
X122642857Y-90454819D01*
X122642857Y-90454819D02*
X122547619Y-90454819D01*
X122547619Y-90454819D02*
X122404762Y-90407200D01*
X122404762Y-90407200D02*
X122309524Y-90311961D01*
X122309524Y-90311961D02*
X122261905Y-90216723D01*
X122261905Y-90216723D02*
X122214286Y-90026247D01*
X122214286Y-90026247D02*
X122214286Y-89883390D01*
X122214286Y-89883390D02*
X122261905Y-89692914D01*
X122261905Y-89692914D02*
X122309524Y-89597676D01*
X122309524Y-89597676D02*
X122404762Y-89502438D01*
X122404762Y-89502438D02*
X122547619Y-89454819D01*
X122547619Y-89454819D02*
X122642857Y-89454819D01*
X122642857Y-89454819D02*
X122785714Y-89502438D01*
X122785714Y-89502438D02*
X122833333Y-89550057D01*
X123404762Y-89883390D02*
X123309524Y-89835771D01*
X123309524Y-89835771D02*
X123261905Y-89788152D01*
X123261905Y-89788152D02*
X123214286Y-89692914D01*
X123214286Y-89692914D02*
X123214286Y-89645295D01*
X123214286Y-89645295D02*
X123261905Y-89550057D01*
X123261905Y-89550057D02*
X123309524Y-89502438D01*
X123309524Y-89502438D02*
X123404762Y-89454819D01*
X123404762Y-89454819D02*
X123595238Y-89454819D01*
X123595238Y-89454819D02*
X123690476Y-89502438D01*
X123690476Y-89502438D02*
X123738095Y-89550057D01*
X123738095Y-89550057D02*
X123785714Y-89645295D01*
X123785714Y-89645295D02*
X123785714Y-89692914D01*
X123785714Y-89692914D02*
X123738095Y-89788152D01*
X123738095Y-89788152D02*
X123690476Y-89835771D01*
X123690476Y-89835771D02*
X123595238Y-89883390D01*
X123595238Y-89883390D02*
X123404762Y-89883390D01*
X123404762Y-89883390D02*
X123309524Y-89931009D01*
X123309524Y-89931009D02*
X123261905Y-89978628D01*
X123261905Y-89978628D02*
X123214286Y-90073866D01*
X123214286Y-90073866D02*
X123214286Y-90264342D01*
X123214286Y-90264342D02*
X123261905Y-90359580D01*
X123261905Y-90359580D02*
X123309524Y-90407200D01*
X123309524Y-90407200D02*
X123404762Y-90454819D01*
X123404762Y-90454819D02*
X123595238Y-90454819D01*
X123595238Y-90454819D02*
X123690476Y-90407200D01*
X123690476Y-90407200D02*
X123738095Y-90359580D01*
X123738095Y-90359580D02*
X123785714Y-90264342D01*
X123785714Y-90264342D02*
X123785714Y-90073866D01*
X123785714Y-90073866D02*
X123738095Y-89978628D01*
X123738095Y-89978628D02*
X123690476Y-89931009D01*
X123690476Y-89931009D02*
X123595238Y-89883390D01*
X132833333Y-91859580D02*
X132785714Y-91907200D01*
X132785714Y-91907200D02*
X132642857Y-91954819D01*
X132642857Y-91954819D02*
X132547619Y-91954819D01*
X132547619Y-91954819D02*
X132404762Y-91907200D01*
X132404762Y-91907200D02*
X132309524Y-91811961D01*
X132309524Y-91811961D02*
X132261905Y-91716723D01*
X132261905Y-91716723D02*
X132214286Y-91526247D01*
X132214286Y-91526247D02*
X132214286Y-91383390D01*
X132214286Y-91383390D02*
X132261905Y-91192914D01*
X132261905Y-91192914D02*
X132309524Y-91097676D01*
X132309524Y-91097676D02*
X132404762Y-91002438D01*
X132404762Y-91002438D02*
X132547619Y-90954819D01*
X132547619Y-90954819D02*
X132642857Y-90954819D01*
X132642857Y-90954819D02*
X132785714Y-91002438D01*
X132785714Y-91002438D02*
X132833333Y-91050057D01*
X133166667Y-90954819D02*
X133833333Y-90954819D01*
X133833333Y-90954819D02*
X133404762Y-91954819D01*
X146859580Y-102666666D02*
X146907200Y-102714285D01*
X146907200Y-102714285D02*
X146954819Y-102857142D01*
X146954819Y-102857142D02*
X146954819Y-102952380D01*
X146954819Y-102952380D02*
X146907200Y-103095237D01*
X146907200Y-103095237D02*
X146811961Y-103190475D01*
X146811961Y-103190475D02*
X146716723Y-103238094D01*
X146716723Y-103238094D02*
X146526247Y-103285713D01*
X146526247Y-103285713D02*
X146383390Y-103285713D01*
X146383390Y-103285713D02*
X146192914Y-103238094D01*
X146192914Y-103238094D02*
X146097676Y-103190475D01*
X146097676Y-103190475D02*
X146002438Y-103095237D01*
X146002438Y-103095237D02*
X145954819Y-102952380D01*
X145954819Y-102952380D02*
X145954819Y-102857142D01*
X145954819Y-102857142D02*
X146002438Y-102714285D01*
X146002438Y-102714285D02*
X146050057Y-102666666D01*
X146288152Y-101809523D02*
X146954819Y-101809523D01*
X145907200Y-102047618D02*
X146621485Y-102285713D01*
X146621485Y-102285713D02*
X146621485Y-101666666D01*
X146859580Y-95166666D02*
X146907200Y-95214285D01*
X146907200Y-95214285D02*
X146954819Y-95357142D01*
X146954819Y-95357142D02*
X146954819Y-95452380D01*
X146954819Y-95452380D02*
X146907200Y-95595237D01*
X146907200Y-95595237D02*
X146811961Y-95690475D01*
X146811961Y-95690475D02*
X146716723Y-95738094D01*
X146716723Y-95738094D02*
X146526247Y-95785713D01*
X146526247Y-95785713D02*
X146383390Y-95785713D01*
X146383390Y-95785713D02*
X146192914Y-95738094D01*
X146192914Y-95738094D02*
X146097676Y-95690475D01*
X146097676Y-95690475D02*
X146002438Y-95595237D01*
X146002438Y-95595237D02*
X145954819Y-95452380D01*
X145954819Y-95452380D02*
X145954819Y-95357142D01*
X145954819Y-95357142D02*
X146002438Y-95214285D01*
X146002438Y-95214285D02*
X146050057Y-95166666D01*
X145954819Y-94833332D02*
X145954819Y-94214285D01*
X145954819Y-94214285D02*
X146335771Y-94547618D01*
X146335771Y-94547618D02*
X146335771Y-94404761D01*
X146335771Y-94404761D02*
X146383390Y-94309523D01*
X146383390Y-94309523D02*
X146431009Y-94261904D01*
X146431009Y-94261904D02*
X146526247Y-94214285D01*
X146526247Y-94214285D02*
X146764342Y-94214285D01*
X146764342Y-94214285D02*
X146859580Y-94261904D01*
X146859580Y-94261904D02*
X146907200Y-94309523D01*
X146907200Y-94309523D02*
X146954819Y-94404761D01*
X146954819Y-94404761D02*
X146954819Y-94690475D01*
X146954819Y-94690475D02*
X146907200Y-94785713D01*
X146907200Y-94785713D02*
X146859580Y-94833332D01*
X137454819Y-105642857D02*
X136978628Y-105976190D01*
X137454819Y-106214285D02*
X136454819Y-106214285D01*
X136454819Y-106214285D02*
X136454819Y-105833333D01*
X136454819Y-105833333D02*
X136502438Y-105738095D01*
X136502438Y-105738095D02*
X136550057Y-105690476D01*
X136550057Y-105690476D02*
X136645295Y-105642857D01*
X136645295Y-105642857D02*
X136788152Y-105642857D01*
X136788152Y-105642857D02*
X136883390Y-105690476D01*
X136883390Y-105690476D02*
X136931009Y-105738095D01*
X136931009Y-105738095D02*
X136978628Y-105833333D01*
X136978628Y-105833333D02*
X136978628Y-106214285D01*
X137454819Y-104690476D02*
X137454819Y-105261904D01*
X137454819Y-104976190D02*
X136454819Y-104976190D01*
X136454819Y-104976190D02*
X136597676Y-105071428D01*
X136597676Y-105071428D02*
X136692914Y-105166666D01*
X136692914Y-105166666D02*
X136740533Y-105261904D01*
X136550057Y-104309523D02*
X136502438Y-104261904D01*
X136502438Y-104261904D02*
X136454819Y-104166666D01*
X136454819Y-104166666D02*
X136454819Y-103928571D01*
X136454819Y-103928571D02*
X136502438Y-103833333D01*
X136502438Y-103833333D02*
X136550057Y-103785714D01*
X136550057Y-103785714D02*
X136645295Y-103738095D01*
X136645295Y-103738095D02*
X136740533Y-103738095D01*
X136740533Y-103738095D02*
X136883390Y-103785714D01*
X136883390Y-103785714D02*
X137454819Y-104357142D01*
X137454819Y-104357142D02*
X137454819Y-103738095D01*
X140954819Y-105642857D02*
X140478628Y-105976190D01*
X140954819Y-106214285D02*
X139954819Y-106214285D01*
X139954819Y-106214285D02*
X139954819Y-105833333D01*
X139954819Y-105833333D02*
X140002438Y-105738095D01*
X140002438Y-105738095D02*
X140050057Y-105690476D01*
X140050057Y-105690476D02*
X140145295Y-105642857D01*
X140145295Y-105642857D02*
X140288152Y-105642857D01*
X140288152Y-105642857D02*
X140383390Y-105690476D01*
X140383390Y-105690476D02*
X140431009Y-105738095D01*
X140431009Y-105738095D02*
X140478628Y-105833333D01*
X140478628Y-105833333D02*
X140478628Y-106214285D01*
X140954819Y-104690476D02*
X140954819Y-105261904D01*
X140954819Y-104976190D02*
X139954819Y-104976190D01*
X139954819Y-104976190D02*
X140097676Y-105071428D01*
X140097676Y-105071428D02*
X140192914Y-105166666D01*
X140192914Y-105166666D02*
X140240533Y-105261904D01*
X140954819Y-103738095D02*
X140954819Y-104309523D01*
X140954819Y-104023809D02*
X139954819Y-104023809D01*
X139954819Y-104023809D02*
X140097676Y-104119047D01*
X140097676Y-104119047D02*
X140192914Y-104214285D01*
X140192914Y-104214285D02*
X140240533Y-104309523D01*
X109454819Y-89142857D02*
X108978628Y-89476190D01*
X109454819Y-89714285D02*
X108454819Y-89714285D01*
X108454819Y-89714285D02*
X108454819Y-89333333D01*
X108454819Y-89333333D02*
X108502438Y-89238095D01*
X108502438Y-89238095D02*
X108550057Y-89190476D01*
X108550057Y-89190476D02*
X108645295Y-89142857D01*
X108645295Y-89142857D02*
X108788152Y-89142857D01*
X108788152Y-89142857D02*
X108883390Y-89190476D01*
X108883390Y-89190476D02*
X108931009Y-89238095D01*
X108931009Y-89238095D02*
X108978628Y-89333333D01*
X108978628Y-89333333D02*
X108978628Y-89714285D01*
X109454819Y-88190476D02*
X109454819Y-88761904D01*
X109454819Y-88476190D02*
X108454819Y-88476190D01*
X108454819Y-88476190D02*
X108597676Y-88571428D01*
X108597676Y-88571428D02*
X108692914Y-88666666D01*
X108692914Y-88666666D02*
X108740533Y-88761904D01*
X108454819Y-87571428D02*
X108454819Y-87476190D01*
X108454819Y-87476190D02*
X108502438Y-87380952D01*
X108502438Y-87380952D02*
X108550057Y-87333333D01*
X108550057Y-87333333D02*
X108645295Y-87285714D01*
X108645295Y-87285714D02*
X108835771Y-87238095D01*
X108835771Y-87238095D02*
X109073866Y-87238095D01*
X109073866Y-87238095D02*
X109264342Y-87285714D01*
X109264342Y-87285714D02*
X109359580Y-87333333D01*
X109359580Y-87333333D02*
X109407200Y-87380952D01*
X109407200Y-87380952D02*
X109454819Y-87476190D01*
X109454819Y-87476190D02*
X109454819Y-87571428D01*
X109454819Y-87571428D02*
X109407200Y-87666666D01*
X109407200Y-87666666D02*
X109359580Y-87714285D01*
X109359580Y-87714285D02*
X109264342Y-87761904D01*
X109264342Y-87761904D02*
X109073866Y-87809523D01*
X109073866Y-87809523D02*
X108835771Y-87809523D01*
X108835771Y-87809523D02*
X108645295Y-87761904D01*
X108645295Y-87761904D02*
X108550057Y-87714285D01*
X108550057Y-87714285D02*
X108502438Y-87666666D01*
X108502438Y-87666666D02*
X108454819Y-87571428D01*
X104454819Y-88666666D02*
X103978628Y-88999999D01*
X104454819Y-89238094D02*
X103454819Y-89238094D01*
X103454819Y-89238094D02*
X103454819Y-88857142D01*
X103454819Y-88857142D02*
X103502438Y-88761904D01*
X103502438Y-88761904D02*
X103550057Y-88714285D01*
X103550057Y-88714285D02*
X103645295Y-88666666D01*
X103645295Y-88666666D02*
X103788152Y-88666666D01*
X103788152Y-88666666D02*
X103883390Y-88714285D01*
X103883390Y-88714285D02*
X103931009Y-88761904D01*
X103931009Y-88761904D02*
X103978628Y-88857142D01*
X103978628Y-88857142D02*
X103978628Y-89238094D01*
X104454819Y-88190475D02*
X104454819Y-87999999D01*
X104454819Y-87999999D02*
X104407200Y-87904761D01*
X104407200Y-87904761D02*
X104359580Y-87857142D01*
X104359580Y-87857142D02*
X104216723Y-87761904D01*
X104216723Y-87761904D02*
X104026247Y-87714285D01*
X104026247Y-87714285D02*
X103645295Y-87714285D01*
X103645295Y-87714285D02*
X103550057Y-87761904D01*
X103550057Y-87761904D02*
X103502438Y-87809523D01*
X103502438Y-87809523D02*
X103454819Y-87904761D01*
X103454819Y-87904761D02*
X103454819Y-88095237D01*
X103454819Y-88095237D02*
X103502438Y-88190475D01*
X103502438Y-88190475D02*
X103550057Y-88238094D01*
X103550057Y-88238094D02*
X103645295Y-88285713D01*
X103645295Y-88285713D02*
X103883390Y-88285713D01*
X103883390Y-88285713D02*
X103978628Y-88238094D01*
X103978628Y-88238094D02*
X104026247Y-88190475D01*
X104026247Y-88190475D02*
X104073866Y-88095237D01*
X104073866Y-88095237D02*
X104073866Y-87904761D01*
X104073866Y-87904761D02*
X104026247Y-87809523D01*
X104026247Y-87809523D02*
X103978628Y-87761904D01*
X103978628Y-87761904D02*
X103883390Y-87714285D01*
D11*
X106074318Y-101042143D02*
X104804318Y-101042143D01*
X104804318Y-101042143D02*
X104804318Y-100558333D01*
X104804318Y-100558333D02*
X104864794Y-100437381D01*
X104864794Y-100437381D02*
X104925270Y-100376904D01*
X104925270Y-100376904D02*
X105046222Y-100316428D01*
X105046222Y-100316428D02*
X105227651Y-100316428D01*
X105227651Y-100316428D02*
X105348603Y-100376904D01*
X105348603Y-100376904D02*
X105409080Y-100437381D01*
X105409080Y-100437381D02*
X105469556Y-100558333D01*
X105469556Y-100558333D02*
X105469556Y-101042143D01*
X106013842Y-99832619D02*
X106074318Y-99651190D01*
X106074318Y-99651190D02*
X106074318Y-99348809D01*
X106074318Y-99348809D02*
X106013842Y-99227857D01*
X106013842Y-99227857D02*
X105953365Y-99167381D01*
X105953365Y-99167381D02*
X105832413Y-99106904D01*
X105832413Y-99106904D02*
X105711461Y-99106904D01*
X105711461Y-99106904D02*
X105590508Y-99167381D01*
X105590508Y-99167381D02*
X105530032Y-99227857D01*
X105530032Y-99227857D02*
X105469556Y-99348809D01*
X105469556Y-99348809D02*
X105409080Y-99590714D01*
X105409080Y-99590714D02*
X105348603Y-99711666D01*
X105348603Y-99711666D02*
X105288127Y-99772143D01*
X105288127Y-99772143D02*
X105167175Y-99832619D01*
X105167175Y-99832619D02*
X105046222Y-99832619D01*
X105046222Y-99832619D02*
X104925270Y-99772143D01*
X104925270Y-99772143D02*
X104864794Y-99711666D01*
X104864794Y-99711666D02*
X104804318Y-99590714D01*
X104804318Y-99590714D02*
X104804318Y-99288333D01*
X104804318Y-99288333D02*
X104864794Y-99106904D01*
X106074318Y-97897380D02*
X106074318Y-98623095D01*
X106074318Y-98260238D02*
X104804318Y-98260238D01*
X104804318Y-98260238D02*
X104985746Y-98381190D01*
X104985746Y-98381190D02*
X105106699Y-98502142D01*
X105106699Y-98502142D02*
X105167175Y-98623095D01*
D10*
X99359580Y-104166666D02*
X99407200Y-104214285D01*
X99407200Y-104214285D02*
X99454819Y-104357142D01*
X99454819Y-104357142D02*
X99454819Y-104452380D01*
X99454819Y-104452380D02*
X99407200Y-104595237D01*
X99407200Y-104595237D02*
X99311961Y-104690475D01*
X99311961Y-104690475D02*
X99216723Y-104738094D01*
X99216723Y-104738094D02*
X99026247Y-104785713D01*
X99026247Y-104785713D02*
X98883390Y-104785713D01*
X98883390Y-104785713D02*
X98692914Y-104738094D01*
X98692914Y-104738094D02*
X98597676Y-104690475D01*
X98597676Y-104690475D02*
X98502438Y-104595237D01*
X98502438Y-104595237D02*
X98454819Y-104452380D01*
X98454819Y-104452380D02*
X98454819Y-104357142D01*
X98454819Y-104357142D02*
X98502438Y-104214285D01*
X98502438Y-104214285D02*
X98550057Y-104166666D01*
X99454819Y-103214285D02*
X99454819Y-103785713D01*
X99454819Y-103499999D02*
X98454819Y-103499999D01*
X98454819Y-103499999D02*
X98597676Y-103595237D01*
X98597676Y-103595237D02*
X98692914Y-103690475D01*
X98692914Y-103690475D02*
X98740533Y-103785713D01*
D11*
X202760237Y-84074318D02*
X202760237Y-82804318D01*
X204090714Y-83953365D02*
X204030238Y-84013842D01*
X204030238Y-84013842D02*
X203848809Y-84074318D01*
X203848809Y-84074318D02*
X203727857Y-84074318D01*
X203727857Y-84074318D02*
X203546428Y-84013842D01*
X203546428Y-84013842D02*
X203425476Y-83892889D01*
X203425476Y-83892889D02*
X203364999Y-83771937D01*
X203364999Y-83771937D02*
X203304523Y-83530032D01*
X203304523Y-83530032D02*
X203304523Y-83348603D01*
X203304523Y-83348603D02*
X203364999Y-83106699D01*
X203364999Y-83106699D02*
X203425476Y-82985746D01*
X203425476Y-82985746D02*
X203546428Y-82864794D01*
X203546428Y-82864794D02*
X203727857Y-82804318D01*
X203727857Y-82804318D02*
X203848809Y-82804318D01*
X203848809Y-82804318D02*
X204030238Y-82864794D01*
X204030238Y-82864794D02*
X204090714Y-82925270D01*
X204574523Y-82925270D02*
X204634999Y-82864794D01*
X204634999Y-82864794D02*
X204755952Y-82804318D01*
X204755952Y-82804318D02*
X205058333Y-82804318D01*
X205058333Y-82804318D02*
X205179285Y-82864794D01*
X205179285Y-82864794D02*
X205239761Y-82925270D01*
X205239761Y-82925270D02*
X205300238Y-83046222D01*
X205300238Y-83046222D02*
X205300238Y-83167175D01*
X205300238Y-83167175D02*
X205239761Y-83348603D01*
X205239761Y-83348603D02*
X204514047Y-84074318D01*
X204514047Y-84074318D02*
X205300238Y-84074318D01*
D10*
X99666666Y-82454819D02*
X99666666Y-83169104D01*
X99666666Y-83169104D02*
X99619047Y-83311961D01*
X99619047Y-83311961D02*
X99523809Y-83407200D01*
X99523809Y-83407200D02*
X99380952Y-83454819D01*
X99380952Y-83454819D02*
X99285714Y-83454819D01*
X100666666Y-83454819D02*
X100095238Y-83454819D01*
X100380952Y-83454819D02*
X100380952Y-82454819D01*
X100380952Y-82454819D02*
X100285714Y-82597676D01*
X100285714Y-82597676D02*
X100190476Y-82692914D01*
X100190476Y-82692914D02*
X100095238Y-82740533D01*
X126538095Y-75954819D02*
X126538095Y-76764342D01*
X126538095Y-76764342D02*
X126585714Y-76859580D01*
X126585714Y-76859580D02*
X126633333Y-76907200D01*
X126633333Y-76907200D02*
X126728571Y-76954819D01*
X126728571Y-76954819D02*
X126919047Y-76954819D01*
X126919047Y-76954819D02*
X127014285Y-76907200D01*
X127014285Y-76907200D02*
X127061904Y-76859580D01*
X127061904Y-76859580D02*
X127109523Y-76764342D01*
X127109523Y-76764342D02*
X127109523Y-75954819D01*
X127490476Y-75954819D02*
X128109523Y-75954819D01*
X128109523Y-75954819D02*
X127776190Y-76335771D01*
X127776190Y-76335771D02*
X127919047Y-76335771D01*
X127919047Y-76335771D02*
X128014285Y-76383390D01*
X128014285Y-76383390D02*
X128061904Y-76431009D01*
X128061904Y-76431009D02*
X128109523Y-76526247D01*
X128109523Y-76526247D02*
X128109523Y-76764342D01*
X128109523Y-76764342D02*
X128061904Y-76859580D01*
X128061904Y-76859580D02*
X128014285Y-76907200D01*
X128014285Y-76907200D02*
X127919047Y-76954819D01*
X127919047Y-76954819D02*
X127633333Y-76954819D01*
X127633333Y-76954819D02*
X127538095Y-76907200D01*
X127538095Y-76907200D02*
X127490476Y-76859580D01*
X129238095Y-106954819D02*
X129238095Y-107764342D01*
X129238095Y-107764342D02*
X129285714Y-107859580D01*
X129285714Y-107859580D02*
X129333333Y-107907200D01*
X129333333Y-107907200D02*
X129428571Y-107954819D01*
X129428571Y-107954819D02*
X129619047Y-107954819D01*
X129619047Y-107954819D02*
X129714285Y-107907200D01*
X129714285Y-107907200D02*
X129761904Y-107859580D01*
X129761904Y-107859580D02*
X129809523Y-107764342D01*
X129809523Y-107764342D02*
X129809523Y-106954819D01*
X130238095Y-107050057D02*
X130285714Y-107002438D01*
X130285714Y-107002438D02*
X130380952Y-106954819D01*
X130380952Y-106954819D02*
X130619047Y-106954819D01*
X130619047Y-106954819D02*
X130714285Y-107002438D01*
X130714285Y-107002438D02*
X130761904Y-107050057D01*
X130761904Y-107050057D02*
X130809523Y-107145295D01*
X130809523Y-107145295D02*
X130809523Y-107240533D01*
X130809523Y-107240533D02*
X130761904Y-107383390D01*
X130761904Y-107383390D02*
X130190476Y-107954819D01*
X130190476Y-107954819D02*
X130809523Y-107954819D01*
X186953333Y-92954819D02*
X186620000Y-92478628D01*
X186381905Y-92954819D02*
X186381905Y-91954819D01*
X186381905Y-91954819D02*
X186762857Y-91954819D01*
X186762857Y-91954819D02*
X186858095Y-92002438D01*
X186858095Y-92002438D02*
X186905714Y-92050057D01*
X186905714Y-92050057D02*
X186953333Y-92145295D01*
X186953333Y-92145295D02*
X186953333Y-92288152D01*
X186953333Y-92288152D02*
X186905714Y-92383390D01*
X186905714Y-92383390D02*
X186858095Y-92431009D01*
X186858095Y-92431009D02*
X186762857Y-92478628D01*
X186762857Y-92478628D02*
X186381905Y-92478628D01*
X187524762Y-92383390D02*
X187429524Y-92335771D01*
X187429524Y-92335771D02*
X187381905Y-92288152D01*
X187381905Y-92288152D02*
X187334286Y-92192914D01*
X187334286Y-92192914D02*
X187334286Y-92145295D01*
X187334286Y-92145295D02*
X187381905Y-92050057D01*
X187381905Y-92050057D02*
X187429524Y-92002438D01*
X187429524Y-92002438D02*
X187524762Y-91954819D01*
X187524762Y-91954819D02*
X187715238Y-91954819D01*
X187715238Y-91954819D02*
X187810476Y-92002438D01*
X187810476Y-92002438D02*
X187858095Y-92050057D01*
X187858095Y-92050057D02*
X187905714Y-92145295D01*
X187905714Y-92145295D02*
X187905714Y-92192914D01*
X187905714Y-92192914D02*
X187858095Y-92288152D01*
X187858095Y-92288152D02*
X187810476Y-92335771D01*
X187810476Y-92335771D02*
X187715238Y-92383390D01*
X187715238Y-92383390D02*
X187524762Y-92383390D01*
X187524762Y-92383390D02*
X187429524Y-92431009D01*
X187429524Y-92431009D02*
X187381905Y-92478628D01*
X187381905Y-92478628D02*
X187334286Y-92573866D01*
X187334286Y-92573866D02*
X187334286Y-92764342D01*
X187334286Y-92764342D02*
X187381905Y-92859580D01*
X187381905Y-92859580D02*
X187429524Y-92907200D01*
X187429524Y-92907200D02*
X187524762Y-92954819D01*
X187524762Y-92954819D02*
X187715238Y-92954819D01*
X187715238Y-92954819D02*
X187810476Y-92907200D01*
X187810476Y-92907200D02*
X187858095Y-92859580D01*
X187858095Y-92859580D02*
X187905714Y-92764342D01*
X187905714Y-92764342D02*
X187905714Y-92573866D01*
X187905714Y-92573866D02*
X187858095Y-92478628D01*
X187858095Y-92478628D02*
X187810476Y-92431009D01*
X187810476Y-92431009D02*
X187715238Y-92383390D01*
X186953333Y-88454819D02*
X186620000Y-87978628D01*
X186381905Y-88454819D02*
X186381905Y-87454819D01*
X186381905Y-87454819D02*
X186762857Y-87454819D01*
X186762857Y-87454819D02*
X186858095Y-87502438D01*
X186858095Y-87502438D02*
X186905714Y-87550057D01*
X186905714Y-87550057D02*
X186953333Y-87645295D01*
X186953333Y-87645295D02*
X186953333Y-87788152D01*
X186953333Y-87788152D02*
X186905714Y-87883390D01*
X186905714Y-87883390D02*
X186858095Y-87931009D01*
X186858095Y-87931009D02*
X186762857Y-87978628D01*
X186762857Y-87978628D02*
X186381905Y-87978628D01*
X187286667Y-87454819D02*
X187953333Y-87454819D01*
X187953333Y-87454819D02*
X187524762Y-88454819D01*
X133333333Y-86954819D02*
X133000000Y-86478628D01*
X132761905Y-86954819D02*
X132761905Y-85954819D01*
X132761905Y-85954819D02*
X133142857Y-85954819D01*
X133142857Y-85954819D02*
X133238095Y-86002438D01*
X133238095Y-86002438D02*
X133285714Y-86050057D01*
X133285714Y-86050057D02*
X133333333Y-86145295D01*
X133333333Y-86145295D02*
X133333333Y-86288152D01*
X133333333Y-86288152D02*
X133285714Y-86383390D01*
X133285714Y-86383390D02*
X133238095Y-86431009D01*
X133238095Y-86431009D02*
X133142857Y-86478628D01*
X133142857Y-86478628D02*
X132761905Y-86478628D01*
X134190476Y-86288152D02*
X134190476Y-86954819D01*
X133952381Y-85907200D02*
X133714286Y-86621485D01*
X133714286Y-86621485D02*
X134333333Y-86621485D01*
X133333333Y-78954819D02*
X133000000Y-78478628D01*
X132761905Y-78954819D02*
X132761905Y-77954819D01*
X132761905Y-77954819D02*
X133142857Y-77954819D01*
X133142857Y-77954819D02*
X133238095Y-78002438D01*
X133238095Y-78002438D02*
X133285714Y-78050057D01*
X133285714Y-78050057D02*
X133333333Y-78145295D01*
X133333333Y-78145295D02*
X133333333Y-78288152D01*
X133333333Y-78288152D02*
X133285714Y-78383390D01*
X133285714Y-78383390D02*
X133238095Y-78431009D01*
X133238095Y-78431009D02*
X133142857Y-78478628D01*
X133142857Y-78478628D02*
X132761905Y-78478628D01*
X133666667Y-77954819D02*
X134285714Y-77954819D01*
X134285714Y-77954819D02*
X133952381Y-78335771D01*
X133952381Y-78335771D02*
X134095238Y-78335771D01*
X134095238Y-78335771D02*
X134190476Y-78383390D01*
X134190476Y-78383390D02*
X134238095Y-78431009D01*
X134238095Y-78431009D02*
X134285714Y-78526247D01*
X134285714Y-78526247D02*
X134285714Y-78764342D01*
X134285714Y-78764342D02*
X134238095Y-78859580D01*
X134238095Y-78859580D02*
X134190476Y-78907200D01*
X134190476Y-78907200D02*
X134095238Y-78954819D01*
X134095238Y-78954819D02*
X133809524Y-78954819D01*
X133809524Y-78954819D02*
X133714286Y-78907200D01*
X133714286Y-78907200D02*
X133666667Y-78859580D01*
X124333333Y-93954819D02*
X124000000Y-93478628D01*
X123761905Y-93954819D02*
X123761905Y-92954819D01*
X123761905Y-92954819D02*
X124142857Y-92954819D01*
X124142857Y-92954819D02*
X124238095Y-93002438D01*
X124238095Y-93002438D02*
X124285714Y-93050057D01*
X124285714Y-93050057D02*
X124333333Y-93145295D01*
X124333333Y-93145295D02*
X124333333Y-93288152D01*
X124333333Y-93288152D02*
X124285714Y-93383390D01*
X124285714Y-93383390D02*
X124238095Y-93431009D01*
X124238095Y-93431009D02*
X124142857Y-93478628D01*
X124142857Y-93478628D02*
X123761905Y-93478628D01*
X124714286Y-93050057D02*
X124761905Y-93002438D01*
X124761905Y-93002438D02*
X124857143Y-92954819D01*
X124857143Y-92954819D02*
X125095238Y-92954819D01*
X125095238Y-92954819D02*
X125190476Y-93002438D01*
X125190476Y-93002438D02*
X125238095Y-93050057D01*
X125238095Y-93050057D02*
X125285714Y-93145295D01*
X125285714Y-93145295D02*
X125285714Y-93240533D01*
X125285714Y-93240533D02*
X125238095Y-93383390D01*
X125238095Y-93383390D02*
X124666667Y-93954819D01*
X124666667Y-93954819D02*
X125285714Y-93954819D01*
X124333333Y-97454819D02*
X124000000Y-96978628D01*
X123761905Y-97454819D02*
X123761905Y-96454819D01*
X123761905Y-96454819D02*
X124142857Y-96454819D01*
X124142857Y-96454819D02*
X124238095Y-96502438D01*
X124238095Y-96502438D02*
X124285714Y-96550057D01*
X124285714Y-96550057D02*
X124333333Y-96645295D01*
X124333333Y-96645295D02*
X124333333Y-96788152D01*
X124333333Y-96788152D02*
X124285714Y-96883390D01*
X124285714Y-96883390D02*
X124238095Y-96931009D01*
X124238095Y-96931009D02*
X124142857Y-96978628D01*
X124142857Y-96978628D02*
X123761905Y-96978628D01*
X125285714Y-97454819D02*
X124714286Y-97454819D01*
X125000000Y-97454819D02*
X125000000Y-96454819D01*
X125000000Y-96454819D02*
X124904762Y-96597676D01*
X124904762Y-96597676D02*
X124809524Y-96692914D01*
X124809524Y-96692914D02*
X124714286Y-96740533D01*
D12*
X169330000Y-92560000D02*
X169330000Y-91310000D01*
X148890000Y-92560000D02*
X169330000Y-92560000D01*
X148890000Y-88060000D02*
X148890000Y-92560000D01*
X169330000Y-88060000D02*
X148890000Y-88060000D01*
X169330000Y-89310000D02*
X169330000Y-88060000D01*
X169330000Y-89310000D02*
G75*
G03*
X169330000Y-91310000I0J-1000000D01*
G01*
X159445000Y-101970000D02*
X159130000Y-101970000D01*
X161870000Y-101970000D02*
X161555000Y-101970000D01*
X159445000Y-97030000D02*
X159130000Y-97030000D01*
X161870000Y-97030000D02*
X161555000Y-97030000D01*
X159130000Y-97030000D02*
X159130000Y-101970000D01*
X161870000Y-97030000D02*
X161870000Y-101970000D01*
X121330000Y-84060000D02*
X121330000Y-82810000D01*
X103430000Y-84060000D02*
X121330000Y-84060000D01*
X103430000Y-79560000D02*
X103430000Y-84060000D01*
X121330000Y-79560000D02*
X103430000Y-79560000D01*
X121330000Y-80810000D02*
X121330000Y-79560000D01*
X121330000Y-80810000D02*
G75*
G03*
X121330000Y-82810000I0J-1000000D01*
G01*
X116030000Y-87945000D02*
X116030000Y-87630000D01*
X116030000Y-90370000D02*
X116030000Y-90055000D01*
X120970000Y-87945000D02*
X120970000Y-87630000D01*
X120970000Y-90370000D02*
X120970000Y-90055000D01*
X120970000Y-87630000D02*
X116030000Y-87630000D01*
X120970000Y-90370000D02*
X116030000Y-90370000D01*
D13*
X175603000Y-86689750D02*
X175571250Y-86721500D01*
X175539500Y-86689750D01*
X175571250Y-86658000D01*
X175603000Y-86689750D01*
G36*
X175603000Y-86689750D02*
G01*
X175571250Y-86721500D01*
X175539500Y-86689750D01*
X175571250Y-86658000D01*
X175603000Y-86689750D01*
G37*
X175793500Y-90118750D02*
X175761750Y-90150500D01*
X175730000Y-90118750D01*
X175761750Y-90087000D01*
X175793500Y-90118750D01*
G36*
X175793500Y-90118750D02*
G01*
X175761750Y-90150500D01*
X175730000Y-90118750D01*
X175761750Y-90087000D01*
X175793500Y-90118750D01*
G37*
X175856851Y-86385218D02*
X175857000Y-86387262D01*
X175809230Y-86455144D01*
X175723816Y-86520126D01*
X175599953Y-86579525D01*
X175566385Y-86563000D01*
X175630278Y-86490640D01*
X175696268Y-86442888D01*
X175807468Y-86383921D01*
X175856851Y-86385218D01*
G36*
X175856851Y-86385218D02*
G01*
X175857000Y-86387262D01*
X175809230Y-86455144D01*
X175723816Y-86520126D01*
X175599953Y-86579525D01*
X175566385Y-86563000D01*
X175630278Y-86490640D01*
X175696268Y-86442888D01*
X175807468Y-86383921D01*
X175856851Y-86385218D01*
G37*
X175857000Y-87007250D02*
X175825250Y-87039000D01*
X175793500Y-87007250D01*
X175825250Y-86975500D01*
X175857000Y-87007250D01*
G36*
X175857000Y-87007250D02*
G01*
X175825250Y-87039000D01*
X175793500Y-87007250D01*
X175825250Y-86975500D01*
X175857000Y-87007250D01*
G37*
X175979417Y-86560884D02*
X175984000Y-86594500D01*
X175960766Y-86646768D01*
X175941666Y-86636834D01*
X175934066Y-86561474D01*
X175941666Y-86552167D01*
X175979417Y-86560884D01*
G36*
X175979417Y-86560884D02*
G01*
X175984000Y-86594500D01*
X175960766Y-86646768D01*
X175941666Y-86636834D01*
X175934066Y-86561474D01*
X175941666Y-86552167D01*
X175979417Y-86560884D01*
G37*
X176111000Y-87197750D02*
X176079250Y-87229500D01*
X176047500Y-87197750D01*
X176079250Y-87166000D01*
X176111000Y-87197750D01*
G36*
X176111000Y-87197750D02*
G01*
X176079250Y-87229500D01*
X176047500Y-87197750D01*
X176079250Y-87166000D01*
X176111000Y-87197750D01*
G37*
X176238000Y-86562750D02*
X176206250Y-86594500D01*
X176174500Y-86562750D01*
X176206250Y-86531000D01*
X176238000Y-86562750D01*
G36*
X176238000Y-86562750D02*
G01*
X176206250Y-86594500D01*
X176174500Y-86562750D01*
X176206250Y-86531000D01*
X176238000Y-86562750D01*
G37*
X176365000Y-87134250D02*
X176333250Y-87166000D01*
X176301500Y-87134250D01*
X176333250Y-87102500D01*
X176365000Y-87134250D01*
G36*
X176365000Y-87134250D02*
G01*
X176333250Y-87166000D01*
X176301500Y-87134250D01*
X176333250Y-87102500D01*
X176365000Y-87134250D01*
G37*
X176487417Y-86370384D02*
X176492000Y-86404000D01*
X176468766Y-86456268D01*
X176449666Y-86446334D01*
X176442066Y-86370974D01*
X176449666Y-86361667D01*
X176487417Y-86370384D01*
G36*
X176487417Y-86370384D02*
G01*
X176492000Y-86404000D01*
X176468766Y-86456268D01*
X176449666Y-86446334D01*
X176442066Y-86370974D01*
X176449666Y-86361667D01*
X176487417Y-86370384D01*
G37*
X176492000Y-87642250D02*
X176460250Y-87674000D01*
X176428500Y-87642250D01*
X176460250Y-87610500D01*
X176492000Y-87642250D01*
G36*
X176492000Y-87642250D02*
G01*
X176460250Y-87674000D01*
X176428500Y-87642250D01*
X176460250Y-87610500D01*
X176492000Y-87642250D01*
G37*
X176492000Y-87769250D02*
X176460250Y-87801000D01*
X176428500Y-87769250D01*
X176460250Y-87737500D01*
X176492000Y-87769250D01*
G36*
X176492000Y-87769250D02*
G01*
X176460250Y-87801000D01*
X176428500Y-87769250D01*
X176460250Y-87737500D01*
X176492000Y-87769250D01*
G37*
X176746000Y-87197750D02*
X176714250Y-87229500D01*
X176682500Y-87197750D01*
X176714250Y-87166000D01*
X176746000Y-87197750D01*
G36*
X176746000Y-87197750D02*
G01*
X176714250Y-87229500D01*
X176682500Y-87197750D01*
X176714250Y-87166000D01*
X176746000Y-87197750D01*
G37*
X176746000Y-87388250D02*
X176714250Y-87420000D01*
X176682500Y-87388250D01*
X176714250Y-87356500D01*
X176746000Y-87388250D01*
G36*
X176746000Y-87388250D02*
G01*
X176714250Y-87420000D01*
X176682500Y-87388250D01*
X176714250Y-87356500D01*
X176746000Y-87388250D01*
G37*
X176746000Y-87515250D02*
X176714250Y-87547000D01*
X176682500Y-87515250D01*
X176714250Y-87483500D01*
X176746000Y-87515250D01*
G36*
X176746000Y-87515250D02*
G01*
X176714250Y-87547000D01*
X176682500Y-87515250D01*
X176714250Y-87483500D01*
X176746000Y-87515250D01*
G37*
X176746000Y-87642250D02*
X176714250Y-87674000D01*
X176682500Y-87642250D01*
X176714250Y-87610500D01*
X176746000Y-87642250D01*
G36*
X176746000Y-87642250D02*
G01*
X176714250Y-87674000D01*
X176682500Y-87642250D01*
X176714250Y-87610500D01*
X176746000Y-87642250D01*
G37*
X176862973Y-86531000D02*
X176852994Y-86621147D01*
X176830945Y-86610375D01*
X176822558Y-86480369D01*
X176830945Y-86451625D01*
X176854122Y-86443648D01*
X176862973Y-86531000D01*
G36*
X176862973Y-86531000D02*
G01*
X176852994Y-86621147D01*
X176830945Y-86610375D01*
X176822558Y-86480369D01*
X176830945Y-86451625D01*
X176854122Y-86443648D01*
X176862973Y-86531000D01*
G37*
X176803212Y-87915544D02*
X176809500Y-87954459D01*
X176857511Y-88056428D01*
X176888875Y-88076446D01*
X176925241Y-88106812D01*
X176904750Y-88112515D01*
X176797480Y-88082471D01*
X176777750Y-88069903D01*
X176711448Y-87983465D01*
X176702148Y-87896645D01*
X176746000Y-87864500D01*
X176803212Y-87915544D01*
G36*
X176803212Y-87915544D02*
G01*
X176809500Y-87954459D01*
X176857511Y-88056428D01*
X176888875Y-88076446D01*
X176925241Y-88106812D01*
X176904750Y-88112515D01*
X176797480Y-88082471D01*
X176777750Y-88069903D01*
X176711448Y-87983465D01*
X176702148Y-87896645D01*
X176746000Y-87864500D01*
X176803212Y-87915544D01*
G37*
X176915333Y-88203167D02*
X176906616Y-88240918D01*
X176873000Y-88245500D01*
X176820732Y-88222267D01*
X176830666Y-88203167D01*
X176906026Y-88195567D01*
X176915333Y-88203167D01*
G36*
X176915333Y-88203167D02*
G01*
X176906616Y-88240918D01*
X176873000Y-88245500D01*
X176820732Y-88222267D01*
X176830666Y-88203167D01*
X176906026Y-88195567D01*
X176915333Y-88203167D01*
G37*
X177000000Y-86816750D02*
X176968250Y-86848500D01*
X176936500Y-86816750D01*
X176968250Y-86785000D01*
X177000000Y-86816750D01*
G36*
X177000000Y-86816750D02*
G01*
X176968250Y-86848500D01*
X176936500Y-86816750D01*
X176968250Y-86785000D01*
X177000000Y-86816750D01*
G37*
X177000000Y-87070750D02*
X176968250Y-87102500D01*
X176936500Y-87070750D01*
X176968250Y-87039000D01*
X177000000Y-87070750D01*
G36*
X177000000Y-87070750D02*
G01*
X176968250Y-87102500D01*
X176936500Y-87070750D01*
X176968250Y-87039000D01*
X177000000Y-87070750D01*
G37*
X177000000Y-87197750D02*
X176968250Y-87229500D01*
X176936500Y-87197750D01*
X176968250Y-87166000D01*
X177000000Y-87197750D01*
G36*
X177000000Y-87197750D02*
G01*
X176968250Y-87229500D01*
X176936500Y-87197750D01*
X176968250Y-87166000D01*
X177000000Y-87197750D01*
G37*
X177122417Y-87195884D02*
X177127000Y-87229500D01*
X177103766Y-87281768D01*
X177084666Y-87271834D01*
X177077066Y-87196474D01*
X177084666Y-87187167D01*
X177122417Y-87195884D01*
G36*
X177122417Y-87195884D02*
G01*
X177127000Y-87229500D01*
X177103766Y-87281768D01*
X177084666Y-87271834D01*
X177077066Y-87196474D01*
X177084666Y-87187167D01*
X177122417Y-87195884D01*
G37*
X177127000Y-87959750D02*
X177095250Y-87991500D01*
X177063500Y-87959750D01*
X177095250Y-87928000D01*
X177127000Y-87959750D01*
G36*
X177127000Y-87959750D02*
G01*
X177095250Y-87991500D01*
X177063500Y-87959750D01*
X177095250Y-87928000D01*
X177127000Y-87959750D01*
G37*
X177127000Y-88086750D02*
X177095250Y-88118500D01*
X177063500Y-88086750D01*
X177095250Y-88055000D01*
X177127000Y-88086750D01*
G36*
X177127000Y-88086750D02*
G01*
X177095250Y-88118500D01*
X177063500Y-88086750D01*
X177095250Y-88055000D01*
X177127000Y-88086750D01*
G37*
X177254000Y-86435750D02*
X177222250Y-86467500D01*
X177190500Y-86435750D01*
X177222250Y-86404000D01*
X177254000Y-86435750D01*
G36*
X177254000Y-86435750D02*
G01*
X177222250Y-86467500D01*
X177190500Y-86435750D01*
X177222250Y-86404000D01*
X177254000Y-86435750D01*
G37*
X177317500Y-88467750D02*
X177285750Y-88499500D01*
X177254000Y-88467750D01*
X177285750Y-88436000D01*
X177317500Y-88467750D01*
G36*
X177317500Y-88467750D02*
G01*
X177285750Y-88499500D01*
X177254000Y-88467750D01*
X177285750Y-88436000D01*
X177317500Y-88467750D01*
G37*
X177246875Y-86160942D02*
X177394096Y-86180796D01*
X177444500Y-86212291D01*
X177390880Y-86273613D01*
X177296317Y-86311772D01*
X177140289Y-86326797D01*
X176932089Y-86318831D01*
X176867692Y-86311613D01*
X176654595Y-86283916D01*
X176516235Y-86271541D01*
X176401380Y-86273665D01*
X176258796Y-86289467D01*
X176174500Y-86300485D01*
X175888750Y-86337933D01*
X176142750Y-86248847D01*
X176308946Y-86209222D01*
X176533566Y-86179745D01*
X176785501Y-86161291D01*
X177033640Y-86154732D01*
X177246875Y-86160942D01*
G36*
X177246875Y-86160942D02*
G01*
X177394096Y-86180796D01*
X177444500Y-86212291D01*
X177390880Y-86273613D01*
X177296317Y-86311772D01*
X177140289Y-86326797D01*
X176932089Y-86318831D01*
X176867692Y-86311613D01*
X176654595Y-86283916D01*
X176516235Y-86271541D01*
X176401380Y-86273665D01*
X176258796Y-86289467D01*
X176174500Y-86300485D01*
X175888750Y-86337933D01*
X176142750Y-86248847D01*
X176308946Y-86209222D01*
X176533566Y-86179745D01*
X176785501Y-86161291D01*
X177033640Y-86154732D01*
X177246875Y-86160942D01*
G37*
X177508000Y-86372250D02*
X177476250Y-86404000D01*
X177444500Y-86372250D01*
X177476250Y-86340500D01*
X177508000Y-86372250D01*
G36*
X177508000Y-86372250D02*
G01*
X177476250Y-86404000D01*
X177444500Y-86372250D01*
X177476250Y-86340500D01*
X177508000Y-86372250D01*
G37*
X177508000Y-88340750D02*
X177476250Y-88372500D01*
X177444500Y-88340750D01*
X177476250Y-88309000D01*
X177508000Y-88340750D01*
G36*
X177508000Y-88340750D02*
G01*
X177476250Y-88372500D01*
X177444500Y-88340750D01*
X177476250Y-88309000D01*
X177508000Y-88340750D01*
G37*
X177635000Y-86245250D02*
X177603250Y-86277000D01*
X177571500Y-86245250D01*
X177603250Y-86213500D01*
X177635000Y-86245250D01*
G36*
X177635000Y-86245250D02*
G01*
X177603250Y-86277000D01*
X177571500Y-86245250D01*
X177603250Y-86213500D01*
X177635000Y-86245250D01*
G37*
X177804333Y-88203167D02*
X177795616Y-88240918D01*
X177762000Y-88245500D01*
X177709732Y-88222267D01*
X177719666Y-88203167D01*
X177795026Y-88195567D01*
X177804333Y-88203167D01*
G36*
X177804333Y-88203167D02*
G01*
X177795616Y-88240918D01*
X177762000Y-88245500D01*
X177709732Y-88222267D01*
X177719666Y-88203167D01*
X177795026Y-88195567D01*
X177804333Y-88203167D01*
G37*
X177825500Y-88340750D02*
X177793750Y-88372500D01*
X177762000Y-88340750D01*
X177793750Y-88309000D01*
X177825500Y-88340750D01*
G36*
X177825500Y-88340750D02*
G01*
X177793750Y-88372500D01*
X177762000Y-88340750D01*
X177793750Y-88309000D01*
X177825500Y-88340750D01*
G37*
X177952500Y-90531500D02*
X176167863Y-90531500D01*
X176187056Y-90207106D01*
X176206250Y-89882712D01*
X177476250Y-89864750D01*
X177494204Y-89150375D01*
X177512159Y-88436000D01*
X177952500Y-88436000D01*
X177952500Y-90531500D01*
G36*
X177952500Y-90531500D02*
G01*
X176167863Y-90531500D01*
X176187056Y-90207106D01*
X176206250Y-89882712D01*
X177476250Y-89864750D01*
X177494204Y-89150375D01*
X177512159Y-88436000D01*
X177952500Y-88436000D01*
X177952500Y-90531500D01*
G37*
X176925845Y-90664508D02*
X177110722Y-90725505D01*
X177156999Y-90761072D01*
X177244767Y-90829379D01*
X177322125Y-90804385D01*
X177372910Y-90761072D01*
X177511781Y-90691565D01*
X177699317Y-90658864D01*
X177719375Y-90658500D01*
X177952500Y-90658500D01*
X177952500Y-90976000D01*
X177945452Y-91167129D01*
X177916448Y-91262397D01*
X177853698Y-91292539D01*
X177830693Y-91293500D01*
X177687309Y-91302160D01*
X177594047Y-91343003D01*
X177540225Y-91438324D01*
X177515161Y-91610418D01*
X177508174Y-91881581D01*
X177508000Y-91967044D01*
X177508000Y-92563500D01*
X177952500Y-92563500D01*
X177952500Y-93198500D01*
X177063500Y-93198500D01*
X176164215Y-93198500D01*
X176175958Y-92563500D01*
X176619000Y-92563500D01*
X177063500Y-92563500D01*
X177063500Y-92028944D01*
X177059097Y-91770142D01*
X177047392Y-91552987D01*
X177030636Y-91414577D01*
X177024956Y-91393944D01*
X176937918Y-91314414D01*
X176841862Y-91293500D01*
X176747340Y-91313634D01*
X176683278Y-91386651D01*
X176644275Y-91531478D01*
X176624931Y-91767040D01*
X176619867Y-92071375D01*
X176619000Y-92563500D01*
X176175958Y-92563500D01*
X176185232Y-92062022D01*
X176194118Y-91649417D01*
X176204725Y-91344500D01*
X176219213Y-91127958D01*
X176239739Y-90980479D01*
X176268464Y-90882752D01*
X176307546Y-90815463D01*
X176327216Y-90792022D01*
X176481460Y-90699730D01*
X176698547Y-90656571D01*
X176925845Y-90664508D01*
G36*
X176925845Y-90664508D02*
G01*
X177110722Y-90725505D01*
X177156999Y-90761072D01*
X177244767Y-90829379D01*
X177322125Y-90804385D01*
X177372910Y-90761072D01*
X177511781Y-90691565D01*
X177699317Y-90658864D01*
X177719375Y-90658500D01*
X177952500Y-90658500D01*
X177952500Y-90976000D01*
X177945452Y-91167129D01*
X177916448Y-91262397D01*
X177853698Y-91292539D01*
X177830693Y-91293500D01*
X177687309Y-91302160D01*
X177594047Y-91343003D01*
X177540225Y-91438324D01*
X177515161Y-91610418D01*
X177508174Y-91881581D01*
X177508000Y-91967044D01*
X177508000Y-92563500D01*
X177952500Y-92563500D01*
X177952500Y-93198500D01*
X177063500Y-93198500D01*
X176164215Y-93198500D01*
X176175958Y-92563500D01*
X176619000Y-92563500D01*
X177063500Y-92563500D01*
X177063500Y-92028944D01*
X177059097Y-91770142D01*
X177047392Y-91552987D01*
X177030636Y-91414577D01*
X177024956Y-91393944D01*
X176937918Y-91314414D01*
X176841862Y-91293500D01*
X176747340Y-91313634D01*
X176683278Y-91386651D01*
X176644275Y-91531478D01*
X176624931Y-91767040D01*
X176619867Y-92071375D01*
X176619000Y-92563500D01*
X176175958Y-92563500D01*
X176185232Y-92062022D01*
X176194118Y-91649417D01*
X176204725Y-91344500D01*
X176219213Y-91127958D01*
X176239739Y-90980479D01*
X176268464Y-90882752D01*
X176307546Y-90815463D01*
X176327216Y-90792022D01*
X176481460Y-90699730D01*
X176698547Y-90656571D01*
X176925845Y-90664508D01*
G37*
X176619000Y-94976500D02*
X176936500Y-94976500D01*
X176936500Y-93516000D01*
X177313340Y-93516000D01*
X177349250Y-94944750D01*
X177650875Y-94964105D01*
X177952500Y-94983459D01*
X177952500Y-95615084D01*
X176206250Y-95579750D01*
X176206250Y-93420750D01*
X176619000Y-93380954D01*
X176619000Y-94976500D01*
G36*
X176619000Y-94976500D02*
G01*
X176936500Y-94976500D01*
X176936500Y-93516000D01*
X177313340Y-93516000D01*
X177349250Y-94944750D01*
X177650875Y-94964105D01*
X177952500Y-94983459D01*
X177952500Y-95615084D01*
X176206250Y-95579750D01*
X176206250Y-93420750D01*
X176619000Y-93380954D01*
X176619000Y-94976500D01*
G37*
X177930251Y-95795835D02*
X177948410Y-95943310D01*
X177952500Y-96077020D01*
X177944785Y-96282206D01*
X177911508Y-96401367D01*
X177837465Y-96475058D01*
X177793750Y-96500500D01*
X177723405Y-96543893D01*
X177677666Y-96600643D01*
X177651245Y-96696135D01*
X177638853Y-96855755D01*
X177635201Y-97104888D01*
X177635000Y-97262500D01*
X177636347Y-97563229D01*
X177643913Y-97762346D01*
X177662989Y-97885236D01*
X177698861Y-97957285D01*
X177756818Y-98003877D01*
X177793750Y-98024501D01*
X177888036Y-98091411D01*
X177935565Y-98187809D01*
X177951540Y-98354248D01*
X177952500Y-98447981D01*
X177946640Y-98635919D01*
X177931567Y-98758837D01*
X177917910Y-98786500D01*
X177855613Y-98753650D01*
X177705760Y-98662870D01*
X177487034Y-98525816D01*
X177222062Y-98356664D01*
X177218118Y-98354146D01*
X177027350Y-98230875D01*
X176171380Y-97675250D01*
X176188069Y-97280153D01*
X176606354Y-97280153D01*
X176898240Y-97461827D01*
X177065877Y-97562791D01*
X177185800Y-97628754D01*
X177222062Y-97643500D01*
X177238866Y-97585778D01*
X177250435Y-97435673D01*
X177254000Y-97260266D01*
X177251773Y-97049978D01*
X177237715Y-96942784D01*
X177200753Y-96914781D01*
X177129818Y-96942066D01*
X177111125Y-96951770D01*
X176955809Y-97042590D01*
X176787302Y-97153330D01*
X176606354Y-97280153D01*
X176188069Y-97280153D01*
X176206250Y-96849750D01*
X177029365Y-96294125D01*
X177314547Y-96103675D01*
X177563408Y-95941359D01*
X177756782Y-95819374D01*
X177875503Y-95749914D01*
X177902490Y-95738500D01*
X177930251Y-95795835D01*
G36*
X177930251Y-95795835D02*
G01*
X177948410Y-95943310D01*
X177952500Y-96077020D01*
X177944785Y-96282206D01*
X177911508Y-96401367D01*
X177837465Y-96475058D01*
X177793750Y-96500500D01*
X177723405Y-96543893D01*
X177677666Y-96600643D01*
X177651245Y-96696135D01*
X177638853Y-96855755D01*
X177635201Y-97104888D01*
X177635000Y-97262500D01*
X177636347Y-97563229D01*
X177643913Y-97762346D01*
X177662989Y-97885236D01*
X177698861Y-97957285D01*
X177756818Y-98003877D01*
X177793750Y-98024501D01*
X177888036Y-98091411D01*
X177935565Y-98187809D01*
X177951540Y-98354248D01*
X177952500Y-98447981D01*
X177946640Y-98635919D01*
X177931567Y-98758837D01*
X177917910Y-98786500D01*
X177855613Y-98753650D01*
X177705760Y-98662870D01*
X177487034Y-98525816D01*
X177222062Y-98356664D01*
X177218118Y-98354146D01*
X177027350Y-98230875D01*
X176171380Y-97675250D01*
X176188069Y-97280153D01*
X176606354Y-97280153D01*
X176898240Y-97461827D01*
X177065877Y-97562791D01*
X177185800Y-97628754D01*
X177222062Y-97643500D01*
X177238866Y-97585778D01*
X177250435Y-97435673D01*
X177254000Y-97260266D01*
X177251773Y-97049978D01*
X177237715Y-96942784D01*
X177200753Y-96914781D01*
X177129818Y-96942066D01*
X177111125Y-96951770D01*
X176955809Y-97042590D01*
X176787302Y-97153330D01*
X176606354Y-97280153D01*
X176188069Y-97280153D01*
X176206250Y-96849750D01*
X177029365Y-96294125D01*
X177314547Y-96103675D01*
X177563408Y-95941359D01*
X177756782Y-95819374D01*
X177875503Y-95749914D01*
X177902490Y-95738500D01*
X177930251Y-95795835D01*
G37*
X178079500Y-88848750D02*
X178047750Y-88880500D01*
X178016000Y-88848750D01*
X178047750Y-88817000D01*
X178079500Y-88848750D01*
G36*
X178079500Y-88848750D02*
G01*
X178047750Y-88880500D01*
X178016000Y-88848750D01*
X178047750Y-88817000D01*
X178079500Y-88848750D01*
G37*
X178143000Y-89102750D02*
X178111250Y-89134500D01*
X178079500Y-89102750D01*
X178111250Y-89071000D01*
X178143000Y-89102750D01*
G36*
X178143000Y-89102750D02*
G01*
X178111250Y-89134500D01*
X178079500Y-89102750D01*
X178111250Y-89071000D01*
X178143000Y-89102750D01*
G37*
X178143000Y-89356750D02*
X178111250Y-89388500D01*
X178079500Y-89356750D01*
X178111250Y-89325000D01*
X178143000Y-89356750D01*
G36*
X178143000Y-89356750D02*
G01*
X178111250Y-89388500D01*
X178079500Y-89356750D01*
X178111250Y-89325000D01*
X178143000Y-89356750D01*
G37*
X177848696Y-86844495D02*
X177895568Y-86885226D01*
X178083483Y-87075628D01*
X178257640Y-87290208D01*
X178405953Y-87507869D01*
X178516338Y-87707515D01*
X178576711Y-87868051D01*
X178574987Y-87968382D01*
X178529291Y-87991500D01*
X178452866Y-87944460D01*
X178449916Y-87938066D01*
X178379131Y-87890656D01*
X178235241Y-87847031D01*
X178219958Y-87843920D01*
X178058959Y-87831733D01*
X177981767Y-87882545D01*
X177975039Y-87897355D01*
X177894840Y-87981054D01*
X177850456Y-87991500D01*
X177770263Y-88019055D01*
X177761955Y-88039125D01*
X177707382Y-88078129D01*
X177603250Y-88095900D01*
X177603205Y-88095908D01*
X177476617Y-88072734D01*
X177444500Y-88016533D01*
X177406353Y-87959750D01*
X177571500Y-87959750D01*
X177603250Y-87991500D01*
X177635000Y-87959750D01*
X177603250Y-87928000D01*
X177571500Y-87959750D01*
X177406353Y-87959750D01*
X177392981Y-87939845D01*
X177349250Y-87929715D01*
X177341847Y-87928000D01*
X177268907Y-87964156D01*
X177269174Y-88084829D01*
X177273633Y-88189186D01*
X177244826Y-88208081D01*
X177193071Y-88219254D01*
X177190500Y-88236461D01*
X177231043Y-88320403D01*
X177238125Y-88325052D01*
X177234241Y-88336347D01*
X177195576Y-88328192D01*
X177085907Y-88353903D01*
X177017622Y-88484013D01*
X177000972Y-88632659D01*
X176972670Y-88757320D01*
X176905686Y-88894437D01*
X176825040Y-89004931D01*
X176755754Y-89049725D01*
X176738604Y-89042439D01*
X176714250Y-89048601D01*
X176676238Y-89058219D01*
X176561166Y-89132389D01*
X176554551Y-89137431D01*
X176469170Y-89219363D01*
X176469080Y-89259363D01*
X176476125Y-89260089D01*
X176549911Y-89303925D01*
X176555500Y-89328748D01*
X176518058Y-89368951D01*
X176499194Y-89361197D01*
X176460250Y-89367289D01*
X176418359Y-89373844D01*
X176364419Y-89420950D01*
X176333250Y-89441107D01*
X176263302Y-89486343D01*
X176132137Y-89513712D01*
X176079250Y-89506710D01*
X176022279Y-89499166D01*
X175983999Y-89449766D01*
X175938853Y-89423330D01*
X175883556Y-89445921D01*
X175841124Y-89463257D01*
X175717721Y-89518981D01*
X175654494Y-89530281D01*
X175593626Y-89561427D01*
X175569121Y-89664269D01*
X175584600Y-89787794D01*
X175630409Y-89869481D01*
X175718159Y-89972657D01*
X175706710Y-90003419D01*
X175608958Y-89963189D01*
X175557277Y-89923355D01*
X175522214Y-89854182D01*
X175500253Y-89732968D01*
X175487879Y-89537011D01*
X175481574Y-89243609D01*
X175480335Y-89132631D01*
X175480467Y-89039250D01*
X176428500Y-89039250D01*
X176460250Y-89071000D01*
X176492000Y-89039250D01*
X176460250Y-89007500D01*
X176428500Y-89039250D01*
X175480467Y-89039250D01*
X175480646Y-88912250D01*
X176682500Y-88912250D01*
X176714250Y-88944000D01*
X176746000Y-88912250D01*
X176714250Y-88880500D01*
X176682500Y-88912250D01*
X175480646Y-88912250D01*
X175480835Y-88777778D01*
X175488999Y-88594750D01*
X176301500Y-88594750D01*
X176333250Y-88626500D01*
X176365000Y-88594750D01*
X176333250Y-88563000D01*
X176301500Y-88594750D01*
X175488999Y-88594750D01*
X175492000Y-88527471D01*
X175500542Y-88467750D01*
X176301500Y-88467750D01*
X176333250Y-88499500D01*
X176365000Y-88467750D01*
X176333250Y-88436000D01*
X176301500Y-88467750D01*
X175500542Y-88467750D01*
X175516020Y-88359540D01*
X175522834Y-88340750D01*
X176047500Y-88340750D01*
X176079250Y-88372500D01*
X176111000Y-88340750D01*
X176301500Y-88340750D01*
X176333250Y-88372500D01*
X176365000Y-88340750D01*
X176333250Y-88309000D01*
X176301500Y-88340750D01*
X176111000Y-88340750D01*
X176079250Y-88309000D01*
X176047500Y-88340750D01*
X175522834Y-88340750D01*
X175555086Y-88251814D01*
X175569627Y-88228547D01*
X175587407Y-88197875D01*
X175862013Y-88197875D01*
X175870318Y-88292204D01*
X175883556Y-88309000D01*
X175974505Y-88285438D01*
X176073023Y-88236845D01*
X176107890Y-88203167D01*
X176259166Y-88203167D01*
X176267883Y-88240918D01*
X176301500Y-88245500D01*
X176353767Y-88222267D01*
X176343833Y-88203167D01*
X176301500Y-88198898D01*
X176268473Y-88195567D01*
X176259166Y-88203167D01*
X176107890Y-88203167D01*
X176111000Y-88200163D01*
X176079250Y-88193715D01*
X176063570Y-88190530D01*
X176019852Y-88203389D01*
X175923362Y-88194226D01*
X175897865Y-88162558D01*
X175870726Y-88147468D01*
X175862013Y-88197875D01*
X175587407Y-88197875D01*
X175651826Y-88086750D01*
X176047500Y-88086750D01*
X176079250Y-88118500D01*
X176111000Y-88086750D01*
X176100417Y-88076167D01*
X176259166Y-88076167D01*
X176267883Y-88113918D01*
X176301500Y-88118500D01*
X176353767Y-88095267D01*
X176343833Y-88076167D01*
X176268473Y-88068567D01*
X176259166Y-88076167D01*
X176100417Y-88076167D01*
X176079250Y-88055000D01*
X176047500Y-88086750D01*
X175651826Y-88086750D01*
X175654156Y-88082730D01*
X175646118Y-88020140D01*
X175571250Y-88032037D01*
X175508786Y-88029080D01*
X175486800Y-87959750D01*
X176047500Y-87959750D01*
X176079250Y-87991500D01*
X176111000Y-87959750D01*
X176079250Y-87928000D01*
X176047500Y-87959750D01*
X175486800Y-87959750D01*
X175480728Y-87940601D01*
X175476000Y-87814510D01*
X175505737Y-87599608D01*
X175613464Y-87416613D01*
X175666500Y-87356500D01*
X175857000Y-87152570D01*
X175857000Y-87321783D01*
X175837712Y-87433270D01*
X175794227Y-87452200D01*
X175759388Y-87463086D01*
X175774130Y-87524617D01*
X175818149Y-87585206D01*
X175841006Y-87563232D01*
X175909919Y-87518139D01*
X175957973Y-87526233D01*
X176015186Y-87581705D01*
X175983164Y-87643257D01*
X175964309Y-87714044D01*
X176049352Y-87782120D01*
X176103964Y-87808065D01*
X176224676Y-87876449D01*
X176266805Y-87931540D01*
X176265245Y-87935289D01*
X176299060Y-87983929D01*
X176417280Y-88046858D01*
X176444450Y-88057683D01*
X176567855Y-88114338D01*
X176576060Y-88150508D01*
X176539624Y-88163775D01*
X176450454Y-88215046D01*
X176430635Y-88278962D01*
X176492000Y-88309000D01*
X176536585Y-88364180D01*
X176555495Y-88497130D01*
X176555500Y-88499500D01*
X176575457Y-88638941D01*
X176649716Y-88688035D01*
X176682500Y-88690000D01*
X176787493Y-88646337D01*
X176809499Y-88556207D01*
X176780466Y-88458256D01*
X176717483Y-88457723D01*
X176653052Y-88454905D01*
X176660777Y-88401017D01*
X176744727Y-88329545D01*
X176848043Y-88309000D01*
X176964089Y-88286382D01*
X177000000Y-88245500D01*
X177051432Y-88189165D01*
X177095250Y-88182000D01*
X177170869Y-88125204D01*
X177190500Y-87991500D01*
X177172106Y-87857744D01*
X177152581Y-87832750D01*
X177317500Y-87832750D01*
X177349250Y-87864500D01*
X177381000Y-87832750D01*
X177349250Y-87801000D01*
X177317500Y-87832750D01*
X177152581Y-87832750D01*
X177127790Y-87801015D01*
X177127000Y-87801000D01*
X177070664Y-87749568D01*
X177063500Y-87705750D01*
X177089266Y-87642250D01*
X177571500Y-87642250D01*
X177603250Y-87674000D01*
X177635000Y-87642250D01*
X177603250Y-87610500D01*
X177571500Y-87642250D01*
X177089266Y-87642250D01*
X177097788Y-87621247D01*
X177127000Y-87610500D01*
X177188059Y-87561685D01*
X177190500Y-87543253D01*
X177166628Y-87515250D01*
X177317500Y-87515250D01*
X177349250Y-87547000D01*
X177381000Y-87515250D01*
X177349250Y-87483500D01*
X177317500Y-87515250D01*
X177166628Y-87515250D01*
X177155075Y-87501697D01*
X177137583Y-87508710D01*
X177091199Y-87489284D01*
X177085118Y-87451750D01*
X177571500Y-87451750D01*
X177603250Y-87483500D01*
X177635000Y-87451750D01*
X177603250Y-87420000D01*
X177571500Y-87451750D01*
X177085118Y-87451750D01*
X177084666Y-87448957D01*
X177098565Y-87381352D01*
X177110924Y-87382758D01*
X177164162Y-87353787D01*
X177279784Y-87252915D01*
X177433738Y-87101285D01*
X177448422Y-87086109D01*
X177611823Y-86919347D01*
X177714662Y-86831730D01*
X177784451Y-86810899D01*
X177848696Y-86844495D01*
G36*
X177848696Y-86844495D02*
G01*
X177895568Y-86885226D01*
X178083483Y-87075628D01*
X178257640Y-87290208D01*
X178405953Y-87507869D01*
X178516338Y-87707515D01*
X178576711Y-87868051D01*
X178574987Y-87968382D01*
X178529291Y-87991500D01*
X178452866Y-87944460D01*
X178449916Y-87938066D01*
X178379131Y-87890656D01*
X178235241Y-87847031D01*
X178219958Y-87843920D01*
X178058959Y-87831733D01*
X177981767Y-87882545D01*
X177975039Y-87897355D01*
X177894840Y-87981054D01*
X177850456Y-87991500D01*
X177770263Y-88019055D01*
X177761955Y-88039125D01*
X177707382Y-88078129D01*
X177603250Y-88095900D01*
X177603205Y-88095908D01*
X177476617Y-88072734D01*
X177444500Y-88016533D01*
X177406353Y-87959750D01*
X177571500Y-87959750D01*
X177603250Y-87991500D01*
X177635000Y-87959750D01*
X177603250Y-87928000D01*
X177571500Y-87959750D01*
X177406353Y-87959750D01*
X177392981Y-87939845D01*
X177349250Y-87929715D01*
X177341847Y-87928000D01*
X177268907Y-87964156D01*
X177269174Y-88084829D01*
X177273633Y-88189186D01*
X177244826Y-88208081D01*
X177193071Y-88219254D01*
X177190500Y-88236461D01*
X177231043Y-88320403D01*
X177238125Y-88325052D01*
X177234241Y-88336347D01*
X177195576Y-88328192D01*
X177085907Y-88353903D01*
X177017622Y-88484013D01*
X177000972Y-88632659D01*
X176972670Y-88757320D01*
X176905686Y-88894437D01*
X176825040Y-89004931D01*
X176755754Y-89049725D01*
X176738604Y-89042439D01*
X176714250Y-89048601D01*
X176676238Y-89058219D01*
X176561166Y-89132389D01*
X176554551Y-89137431D01*
X176469170Y-89219363D01*
X176469080Y-89259363D01*
X176476125Y-89260089D01*
X176549911Y-89303925D01*
X176555500Y-89328748D01*
X176518058Y-89368951D01*
X176499194Y-89361197D01*
X176460250Y-89367289D01*
X176418359Y-89373844D01*
X176364419Y-89420950D01*
X176333250Y-89441107D01*
X176263302Y-89486343D01*
X176132137Y-89513712D01*
X176079250Y-89506710D01*
X176022279Y-89499166D01*
X175983999Y-89449766D01*
X175938853Y-89423330D01*
X175883556Y-89445921D01*
X175841124Y-89463257D01*
X175717721Y-89518981D01*
X175654494Y-89530281D01*
X175593626Y-89561427D01*
X175569121Y-89664269D01*
X175584600Y-89787794D01*
X175630409Y-89869481D01*
X175718159Y-89972657D01*
X175706710Y-90003419D01*
X175608958Y-89963189D01*
X175557277Y-89923355D01*
X175522214Y-89854182D01*
X175500253Y-89732968D01*
X175487879Y-89537011D01*
X175481574Y-89243609D01*
X175480335Y-89132631D01*
X175480467Y-89039250D01*
X176428500Y-89039250D01*
X176460250Y-89071000D01*
X176492000Y-89039250D01*
X176460250Y-89007500D01*
X176428500Y-89039250D01*
X175480467Y-89039250D01*
X175480646Y-88912250D01*
X176682500Y-88912250D01*
X176714250Y-88944000D01*
X176746000Y-88912250D01*
X176714250Y-88880500D01*
X176682500Y-88912250D01*
X175480646Y-88912250D01*
X175480835Y-88777778D01*
X175488999Y-88594750D01*
X176301500Y-88594750D01*
X176333250Y-88626500D01*
X176365000Y-88594750D01*
X176333250Y-88563000D01*
X176301500Y-88594750D01*
X175488999Y-88594750D01*
X175492000Y-88527471D01*
X175500542Y-88467750D01*
X176301500Y-88467750D01*
X176333250Y-88499500D01*
X176365000Y-88467750D01*
X176333250Y-88436000D01*
X176301500Y-88467750D01*
X175500542Y-88467750D01*
X175516020Y-88359540D01*
X175522834Y-88340750D01*
X176047500Y-88340750D01*
X176079250Y-88372500D01*
X176111000Y-88340750D01*
X176301500Y-88340750D01*
X176333250Y-88372500D01*
X176365000Y-88340750D01*
X176333250Y-88309000D01*
X176301500Y-88340750D01*
X176111000Y-88340750D01*
X176079250Y-88309000D01*
X176047500Y-88340750D01*
X175522834Y-88340750D01*
X175555086Y-88251814D01*
X175569627Y-88228547D01*
X175587407Y-88197875D01*
X175862013Y-88197875D01*
X175870318Y-88292204D01*
X175883556Y-88309000D01*
X175974505Y-88285438D01*
X176073023Y-88236845D01*
X176107890Y-88203167D01*
X176259166Y-88203167D01*
X176267883Y-88240918D01*
X176301500Y-88245500D01*
X176353767Y-88222267D01*
X176343833Y-88203167D01*
X176301500Y-88198898D01*
X176268473Y-88195567D01*
X176259166Y-88203167D01*
X176107890Y-88203167D01*
X176111000Y-88200163D01*
X176079250Y-88193715D01*
X176063570Y-88190530D01*
X176019852Y-88203389D01*
X175923362Y-88194226D01*
X175897865Y-88162558D01*
X175870726Y-88147468D01*
X175862013Y-88197875D01*
X175587407Y-88197875D01*
X175651826Y-88086750D01*
X176047500Y-88086750D01*
X176079250Y-88118500D01*
X176111000Y-88086750D01*
X176100417Y-88076167D01*
X176259166Y-88076167D01*
X176267883Y-88113918D01*
X176301500Y-88118500D01*
X176353767Y-88095267D01*
X176343833Y-88076167D01*
X176268473Y-88068567D01*
X176259166Y-88076167D01*
X176100417Y-88076167D01*
X176079250Y-88055000D01*
X176047500Y-88086750D01*
X175651826Y-88086750D01*
X175654156Y-88082730D01*
X175646118Y-88020140D01*
X175571250Y-88032037D01*
X175508786Y-88029080D01*
X175486800Y-87959750D01*
X176047500Y-87959750D01*
X176079250Y-87991500D01*
X176111000Y-87959750D01*
X176079250Y-87928000D01*
X176047500Y-87959750D01*
X175486800Y-87959750D01*
X175480728Y-87940601D01*
X175476000Y-87814510D01*
X175505737Y-87599608D01*
X175613464Y-87416613D01*
X175666500Y-87356500D01*
X175857000Y-87152570D01*
X175857000Y-87321783D01*
X175837712Y-87433270D01*
X175794227Y-87452200D01*
X175759388Y-87463086D01*
X175774130Y-87524617D01*
X175818149Y-87585206D01*
X175841006Y-87563232D01*
X175909919Y-87518139D01*
X175957973Y-87526233D01*
X176015186Y-87581705D01*
X175983164Y-87643257D01*
X175964309Y-87714044D01*
X176049352Y-87782120D01*
X176103964Y-87808065D01*
X176224676Y-87876449D01*
X176266805Y-87931540D01*
X176265245Y-87935289D01*
X176299060Y-87983929D01*
X176417280Y-88046858D01*
X176444450Y-88057683D01*
X176567855Y-88114338D01*
X176576060Y-88150508D01*
X176539624Y-88163775D01*
X176450454Y-88215046D01*
X176430635Y-88278962D01*
X176492000Y-88309000D01*
X176536585Y-88364180D01*
X176555495Y-88497130D01*
X176555500Y-88499500D01*
X176575457Y-88638941D01*
X176649716Y-88688035D01*
X176682500Y-88690000D01*
X176787493Y-88646337D01*
X176809499Y-88556207D01*
X176780466Y-88458256D01*
X176717483Y-88457723D01*
X176653052Y-88454905D01*
X176660777Y-88401017D01*
X176744727Y-88329545D01*
X176848043Y-88309000D01*
X176964089Y-88286382D01*
X177000000Y-88245500D01*
X177051432Y-88189165D01*
X177095250Y-88182000D01*
X177170869Y-88125204D01*
X177190500Y-87991500D01*
X177172106Y-87857744D01*
X177152581Y-87832750D01*
X177317500Y-87832750D01*
X177349250Y-87864500D01*
X177381000Y-87832750D01*
X177349250Y-87801000D01*
X177317500Y-87832750D01*
X177152581Y-87832750D01*
X177127790Y-87801015D01*
X177127000Y-87801000D01*
X177070664Y-87749568D01*
X177063500Y-87705750D01*
X177089266Y-87642250D01*
X177571500Y-87642250D01*
X177603250Y-87674000D01*
X177635000Y-87642250D01*
X177603250Y-87610500D01*
X177571500Y-87642250D01*
X177089266Y-87642250D01*
X177097788Y-87621247D01*
X177127000Y-87610500D01*
X177188059Y-87561685D01*
X177190500Y-87543253D01*
X177166628Y-87515250D01*
X177317500Y-87515250D01*
X177349250Y-87547000D01*
X177381000Y-87515250D01*
X177349250Y-87483500D01*
X177317500Y-87515250D01*
X177166628Y-87515250D01*
X177155075Y-87501697D01*
X177137583Y-87508710D01*
X177091199Y-87489284D01*
X177085118Y-87451750D01*
X177571500Y-87451750D01*
X177603250Y-87483500D01*
X177635000Y-87451750D01*
X177603250Y-87420000D01*
X177571500Y-87451750D01*
X177085118Y-87451750D01*
X177084666Y-87448957D01*
X177098565Y-87381352D01*
X177110924Y-87382758D01*
X177164162Y-87353787D01*
X177279784Y-87252915D01*
X177433738Y-87101285D01*
X177448422Y-87086109D01*
X177611823Y-86919347D01*
X177714662Y-86831730D01*
X177784451Y-86810899D01*
X177848696Y-86844495D01*
G37*
D12*
X205330000Y-82330000D02*
X204000000Y-82330000D01*
X205330000Y-81000000D02*
X205330000Y-82330000D01*
X205330000Y-79730000D02*
X202670000Y-79730000D01*
X202670000Y-79730000D02*
X202670000Y-77130000D01*
X205330000Y-79730000D02*
X205330000Y-77130000D01*
X205330000Y-77130000D02*
X202670000Y-77130000D01*
X206930000Y-104340000D02*
X207530000Y-104340000D01*
X206930000Y-102740000D02*
X206930000Y-104340000D01*
X207530000Y-102740000D02*
X206930000Y-102740000D01*
X206930000Y-101800000D02*
X207530000Y-101800000D01*
X206930000Y-100200000D02*
X206930000Y-101800000D01*
X207530000Y-100200000D02*
X206930000Y-100200000D01*
X201510000Y-103290000D02*
X202510000Y-103290000D01*
X201510000Y-101250000D02*
X202510000Y-101250000D01*
X203040000Y-103290000D02*
X202510000Y-103540000D01*
X203040000Y-101250000D02*
X203040000Y-103290000D01*
X202510000Y-101000000D02*
X203040000Y-101250000D01*
X202510000Y-103540000D02*
X201510000Y-103540000D01*
X202510000Y-101000000D02*
X202510000Y-103540000D01*
X201510000Y-101000000D02*
X202510000Y-101000000D01*
X206500000Y-99330000D02*
X202500000Y-99330000D01*
X207530000Y-104920000D02*
X207530000Y-99620000D01*
X201510000Y-104920000D02*
X207530000Y-104920000D01*
X201510000Y-99620000D02*
X201510000Y-104920000D01*
X207530000Y-99620000D02*
X201510000Y-99620000D01*
X178030000Y-76945000D02*
X178030000Y-76630000D01*
X178030000Y-79370000D02*
X178030000Y-79055000D01*
X182970000Y-76945000D02*
X182970000Y-76630000D01*
X182970000Y-79370000D02*
X182970000Y-79055000D01*
X182970000Y-76630000D02*
X178030000Y-76630000D01*
X182970000Y-79370000D02*
X178030000Y-79370000D01*
X129970000Y-91055000D02*
X129970000Y-91370000D01*
X129970000Y-88630000D02*
X129970000Y-88945000D01*
X125030000Y-91055000D02*
X125030000Y-91370000D01*
X125030000Y-88630000D02*
X125030000Y-88945000D01*
X125030000Y-91370000D02*
X129970000Y-91370000D01*
X125030000Y-88630000D02*
X129970000Y-88630000D01*
X132770000Y-95055000D02*
X132770000Y-95370000D01*
X132770000Y-92630000D02*
X132770000Y-92945000D01*
X127830000Y-95055000D02*
X127830000Y-95370000D01*
X127830000Y-92630000D02*
X127830000Y-92945000D01*
X127830000Y-95370000D02*
X132770000Y-95370000D01*
X127830000Y-92630000D02*
X132770000Y-92630000D01*
X142945000Y-104970000D02*
X142630000Y-104970000D01*
X145370000Y-104970000D02*
X145055000Y-104970000D01*
X142945000Y-100030000D02*
X142630000Y-100030000D01*
X145370000Y-100030000D02*
X145055000Y-100030000D01*
X142630000Y-100030000D02*
X142630000Y-104970000D01*
X145370000Y-100030000D02*
X145370000Y-104970000D01*
X142945000Y-97470000D02*
X142630000Y-97470000D01*
X145370000Y-97470000D02*
X145055000Y-97470000D01*
X142945000Y-92530000D02*
X142630000Y-92530000D01*
X145370000Y-92530000D02*
X145055000Y-92530000D01*
X142630000Y-92530000D02*
X142630000Y-97470000D01*
X145370000Y-92530000D02*
X145370000Y-97470000D01*
X135630000Y-101460000D02*
X135960000Y-101460000D01*
X135630000Y-94920000D02*
X135630000Y-101460000D01*
X135960000Y-94920000D02*
X135630000Y-94920000D01*
X138370000Y-101460000D02*
X138040000Y-101460000D01*
X138370000Y-94920000D02*
X138370000Y-101460000D01*
X138040000Y-94920000D02*
X138370000Y-94920000D01*
X141870000Y-94920000D02*
X141540000Y-94920000D01*
X141870000Y-101460000D02*
X141870000Y-94920000D01*
X141540000Y-101460000D02*
X141870000Y-101460000D01*
X139130000Y-94920000D02*
X139460000Y-94920000D01*
X139130000Y-101460000D02*
X139130000Y-94920000D01*
X139460000Y-101460000D02*
X139130000Y-101460000D01*
X112870000Y-89040000D02*
X112540000Y-89040000D01*
X112870000Y-95580000D02*
X112870000Y-89040000D01*
X112540000Y-95580000D02*
X112870000Y-95580000D01*
X110130000Y-89040000D02*
X110460000Y-89040000D01*
X110130000Y-95580000D02*
X110130000Y-89040000D01*
X110460000Y-95580000D02*
X110130000Y-95580000D01*
X105130000Y-95580000D02*
X105460000Y-95580000D01*
X105130000Y-89040000D02*
X105130000Y-95580000D01*
X105460000Y-89040000D02*
X105130000Y-89040000D01*
X107870000Y-95580000D02*
X107540000Y-95580000D01*
X107870000Y-89040000D02*
X107870000Y-95580000D01*
X107540000Y-89040000D02*
X107870000Y-89040000D01*
D14*
X109400000Y-107000000D02*
G75*
G03*
X109200000Y-107000000I-100000J0D01*
G01*
X109200000Y-107000000D02*
G75*
G03*
X109400000Y-107000000I100000J0D01*
G01*
X109400000Y-107000000D02*
X109400000Y-107000000D01*
X109200000Y-107000000D02*
X109200000Y-107000000D01*
D15*
X107470000Y-106350000D02*
X107470000Y-100350000D01*
X119150000Y-106350000D02*
X107470000Y-106350000D01*
X119150000Y-100350000D02*
X119150000Y-106350000D01*
X107470000Y-100350000D02*
X119150000Y-100350000D01*
D12*
X104225000Y-101195225D02*
X103725000Y-101195225D01*
X103975000Y-100945225D02*
X103975000Y-101445225D01*
X102784000Y-106351000D02*
X102216000Y-106351000D01*
X103018000Y-106311000D02*
X101982000Y-106311000D01*
X103177000Y-106271000D02*
X101823000Y-106271000D01*
X103305000Y-106231000D02*
X101695000Y-106231000D01*
X103415000Y-106191000D02*
X101585000Y-106191000D01*
X103511000Y-106151000D02*
X101489000Y-106151000D01*
X103598000Y-106111000D02*
X101402000Y-106111000D01*
X103678000Y-106071000D02*
X101322000Y-106071000D01*
X101460000Y-106031000D02*
X101249000Y-106031000D01*
X103751000Y-106031000D02*
X103540000Y-106031000D01*
X101460000Y-105991000D02*
X101181000Y-105991000D01*
X103819000Y-105991000D02*
X103540000Y-105991000D01*
X101460000Y-105951000D02*
X101117000Y-105951000D01*
X103883000Y-105951000D02*
X103540000Y-105951000D01*
X101460000Y-105911000D02*
X101057000Y-105911000D01*
X103943000Y-105911000D02*
X103540000Y-105911000D01*
X101460000Y-105871000D02*
X101000000Y-105871000D01*
X104000000Y-105871000D02*
X103540000Y-105871000D01*
X101460000Y-105831000D02*
X100946000Y-105831000D01*
X104054000Y-105831000D02*
X103540000Y-105831000D01*
X101460000Y-105791000D02*
X100895000Y-105791000D01*
X104105000Y-105791000D02*
X103540000Y-105791000D01*
X101460000Y-105751000D02*
X100847000Y-105751000D01*
X104153000Y-105751000D02*
X103540000Y-105751000D01*
X101460000Y-105711000D02*
X100801000Y-105711000D01*
X104199000Y-105711000D02*
X103540000Y-105711000D01*
X101460000Y-105671000D02*
X100757000Y-105671000D01*
X104243000Y-105671000D02*
X103540000Y-105671000D01*
X101460000Y-105631000D02*
X100715000Y-105631000D01*
X104285000Y-105631000D02*
X103540000Y-105631000D01*
X101460000Y-105591000D02*
X100674000Y-105591000D01*
X104326000Y-105591000D02*
X103540000Y-105591000D01*
X101460000Y-105551000D02*
X100636000Y-105551000D01*
X104364000Y-105551000D02*
X103540000Y-105551000D01*
X101460000Y-105511000D02*
X100599000Y-105511000D01*
X104401000Y-105511000D02*
X103540000Y-105511000D01*
X101460000Y-105471000D02*
X100563000Y-105471000D01*
X104437000Y-105471000D02*
X103540000Y-105471000D01*
X101460000Y-105431000D02*
X100529000Y-105431000D01*
X104471000Y-105431000D02*
X103540000Y-105431000D01*
X101460000Y-105391000D02*
X100496000Y-105391000D01*
X104504000Y-105391000D02*
X103540000Y-105391000D01*
X101460000Y-105351000D02*
X100465000Y-105351000D01*
X104535000Y-105351000D02*
X103540000Y-105351000D01*
X101460000Y-105311000D02*
X100435000Y-105311000D01*
X104565000Y-105311000D02*
X103540000Y-105311000D01*
X101460000Y-105271000D02*
X100405000Y-105271000D01*
X104595000Y-105271000D02*
X103540000Y-105271000D01*
X101460000Y-105231000D02*
X100378000Y-105231000D01*
X104622000Y-105231000D02*
X103540000Y-105231000D01*
X101460000Y-105191000D02*
X100351000Y-105191000D01*
X104649000Y-105191000D02*
X103540000Y-105191000D01*
X101460000Y-105151000D02*
X100325000Y-105151000D01*
X104675000Y-105151000D02*
X103540000Y-105151000D01*
X101460000Y-105111000D02*
X100300000Y-105111000D01*
X104700000Y-105111000D02*
X103540000Y-105111000D01*
X101460000Y-105071000D02*
X100276000Y-105071000D01*
X104724000Y-105071000D02*
X103540000Y-105071000D01*
X101460000Y-105031000D02*
X100253000Y-105031000D01*
X104747000Y-105031000D02*
X103540000Y-105031000D01*
X101460000Y-104991000D02*
X100232000Y-104991000D01*
X104768000Y-104991000D02*
X103540000Y-104991000D01*
X101460000Y-104951000D02*
X100210000Y-104951000D01*
X104790000Y-104951000D02*
X103540000Y-104951000D01*
X101460000Y-104911000D02*
X100190000Y-104911000D01*
X104810000Y-104911000D02*
X103540000Y-104911000D01*
X101460000Y-104871000D02*
X100171000Y-104871000D01*
X104829000Y-104871000D02*
X103540000Y-104871000D01*
X101460000Y-104831000D02*
X100152000Y-104831000D01*
X104848000Y-104831000D02*
X103540000Y-104831000D01*
X101460000Y-104791000D02*
X100135000Y-104791000D01*
X104865000Y-104791000D02*
X103540000Y-104791000D01*
X101460000Y-104751000D02*
X100118000Y-104751000D01*
X104882000Y-104751000D02*
X103540000Y-104751000D01*
X101460000Y-104711000D02*
X100102000Y-104711000D01*
X104898000Y-104711000D02*
X103540000Y-104711000D01*
X101460000Y-104671000D02*
X100086000Y-104671000D01*
X104914000Y-104671000D02*
X103540000Y-104671000D01*
X101460000Y-104631000D02*
X100072000Y-104631000D01*
X104928000Y-104631000D02*
X103540000Y-104631000D01*
X101460000Y-104591000D02*
X100058000Y-104591000D01*
X104942000Y-104591000D02*
X103540000Y-104591000D01*
X101460000Y-104551000D02*
X100045000Y-104551000D01*
X104955000Y-104551000D02*
X103540000Y-104551000D01*
X101460000Y-104511000D02*
X100032000Y-104511000D01*
X104968000Y-104511000D02*
X103540000Y-104511000D01*
X101460000Y-104471000D02*
X100020000Y-104471000D01*
X104980000Y-104471000D02*
X103540000Y-104471000D01*
X101460000Y-104430000D02*
X100009000Y-104430000D01*
X104991000Y-104430000D02*
X103540000Y-104430000D01*
X101460000Y-104390000D02*
X99999000Y-104390000D01*
X105001000Y-104390000D02*
X103540000Y-104390000D01*
X101460000Y-104350000D02*
X99989000Y-104350000D01*
X105011000Y-104350000D02*
X103540000Y-104350000D01*
X101460000Y-104310000D02*
X99980000Y-104310000D01*
X105020000Y-104310000D02*
X103540000Y-104310000D01*
X101460000Y-104270000D02*
X99972000Y-104270000D01*
X105028000Y-104270000D02*
X103540000Y-104270000D01*
X101460000Y-104230000D02*
X99964000Y-104230000D01*
X105036000Y-104230000D02*
X103540000Y-104230000D01*
X101460000Y-104190000D02*
X99957000Y-104190000D01*
X105043000Y-104190000D02*
X103540000Y-104190000D01*
X101460000Y-104150000D02*
X99950000Y-104150000D01*
X105050000Y-104150000D02*
X103540000Y-104150000D01*
X101460000Y-104110000D02*
X99944000Y-104110000D01*
X105056000Y-104110000D02*
X103540000Y-104110000D01*
X101460000Y-104070000D02*
X99939000Y-104070000D01*
X105061000Y-104070000D02*
X103540000Y-104070000D01*
X101460000Y-104030000D02*
X99935000Y-104030000D01*
X105065000Y-104030000D02*
X103540000Y-104030000D01*
X101460000Y-103990000D02*
X99931000Y-103990000D01*
X105069000Y-103990000D02*
X103540000Y-103990000D01*
X105073000Y-103950000D02*
X99927000Y-103950000D01*
X105076000Y-103910000D02*
X99924000Y-103910000D01*
X105078000Y-103870000D02*
X99922000Y-103870000D01*
X105079000Y-103830000D02*
X99921000Y-103830000D01*
X105080000Y-103790000D02*
X99920000Y-103790000D01*
X105080000Y-103750000D02*
X99920000Y-103750000D01*
X105120000Y-103750000D02*
G75*
G03*
X99880000Y-103750000I-2620000J0D01*
G01*
X99880000Y-103750000D02*
G75*
G03*
X105120000Y-103750000I2620000J0D01*
G01*
D15*
X208500000Y-95500000D02*
X199500000Y-95500000D01*
X208500000Y-85500000D02*
X208500000Y-95500000D01*
X199500000Y-85500000D02*
X208500000Y-85500000D01*
X199500000Y-95500000D02*
X199500000Y-85500000D01*
D12*
X102270000Y-99770000D02*
X101000000Y-99770000D01*
X102270000Y-98500000D02*
X102270000Y-99770000D01*
X99957071Y-85420000D02*
X99502929Y-85420000D01*
X99957071Y-86180000D02*
X99502929Y-86180000D01*
X97417071Y-85420000D02*
X97020000Y-85420000D01*
X97417071Y-86180000D02*
X97020000Y-86180000D01*
X88360000Y-85420000D02*
X94360000Y-85420000D01*
X88360000Y-86180000D02*
X88360000Y-85420000D01*
X94360000Y-86180000D02*
X88360000Y-86180000D01*
X97020000Y-87070000D02*
X94360000Y-87070000D01*
X99957071Y-87960000D02*
X99502929Y-87960000D01*
X99957071Y-88720000D02*
X99502929Y-88720000D01*
X97417071Y-87960000D02*
X97020000Y-87960000D01*
X97417071Y-88720000D02*
X97020000Y-88720000D01*
X88360000Y-87960000D02*
X94360000Y-87960000D01*
X88360000Y-88720000D02*
X88360000Y-87960000D01*
X94360000Y-88720000D02*
X88360000Y-88720000D01*
X97020000Y-89610000D02*
X94360000Y-89610000D01*
X99957071Y-90500000D02*
X99502929Y-90500000D01*
X99957071Y-91260000D02*
X99502929Y-91260000D01*
X97417071Y-90500000D02*
X97020000Y-90500000D01*
X97417071Y-91260000D02*
X97020000Y-91260000D01*
X88360000Y-90500000D02*
X94360000Y-90500000D01*
X88360000Y-91260000D02*
X88360000Y-90500000D01*
X94360000Y-91260000D02*
X88360000Y-91260000D01*
X97020000Y-92150000D02*
X94360000Y-92150000D01*
X99957071Y-93040000D02*
X99502929Y-93040000D01*
X99957071Y-93800000D02*
X99502929Y-93800000D01*
X97417071Y-93040000D02*
X97020000Y-93040000D01*
X97417071Y-93800000D02*
X97020000Y-93800000D01*
X88360000Y-93040000D02*
X94360000Y-93040000D01*
X88360000Y-93800000D02*
X88360000Y-93040000D01*
X94360000Y-93800000D02*
X88360000Y-93800000D01*
X97020000Y-94690000D02*
X94360000Y-94690000D01*
X99957071Y-95580000D02*
X99502929Y-95580000D01*
X99957071Y-96340000D02*
X99502929Y-96340000D01*
X97417071Y-95580000D02*
X97020000Y-95580000D01*
X97417071Y-96340000D02*
X97020000Y-96340000D01*
X88360000Y-95580000D02*
X94360000Y-95580000D01*
X88360000Y-96340000D02*
X88360000Y-95580000D01*
X94360000Y-96340000D02*
X88360000Y-96340000D01*
X97020000Y-97230000D02*
X94360000Y-97230000D01*
X99890000Y-98120000D02*
X99502929Y-98120000D01*
X99890000Y-98880000D02*
X99502929Y-98880000D01*
X97417071Y-98120000D02*
X97020000Y-98120000D01*
X97417071Y-98880000D02*
X97020000Y-98880000D01*
X94360000Y-98220000D02*
X88360000Y-98220000D01*
X94360000Y-98340000D02*
X88360000Y-98340000D01*
X94360000Y-98460000D02*
X88360000Y-98460000D01*
X94360000Y-98580000D02*
X88360000Y-98580000D01*
X94360000Y-98700000D02*
X88360000Y-98700000D01*
X94360000Y-98820000D02*
X88360000Y-98820000D01*
X88360000Y-98120000D02*
X94360000Y-98120000D01*
X88360000Y-98880000D02*
X88360000Y-98120000D01*
X94360000Y-98880000D02*
X88360000Y-98880000D01*
X94360000Y-99830000D02*
X97020000Y-99830000D01*
X94360000Y-84470000D02*
X94360000Y-99830000D01*
X97020000Y-84470000D02*
X94360000Y-84470000D01*
X97020000Y-99830000D02*
X97020000Y-84470000D01*
X124840000Y-87830000D02*
X126490000Y-87830000D01*
X124840000Y-77550000D02*
X124840000Y-87830000D01*
X130140000Y-77550000D02*
X124840000Y-77550000D01*
X130140000Y-87830000D02*
X130140000Y-77550000D01*
X128490000Y-87830000D02*
X130140000Y-87830000D01*
X128490000Y-87830000D02*
G75*
G03*
X126490000Y-87830000I-1000000J0D01*
G01*
X132960000Y-96170000D02*
X131310000Y-96170000D01*
X132960000Y-106450000D02*
X132960000Y-96170000D01*
X127660000Y-106450000D02*
X132960000Y-106450000D01*
X127660000Y-96170000D02*
X127660000Y-106450000D01*
X129310000Y-96170000D02*
X127660000Y-96170000D01*
X129310000Y-96170000D02*
G75*
G03*
X131310000Y-96170000I1000000J0D01*
G01*
X190040000Y-91130000D02*
X190040000Y-91460000D01*
X196580000Y-91130000D02*
X190040000Y-91130000D01*
X196580000Y-91460000D02*
X196580000Y-91130000D01*
X190040000Y-93870000D02*
X190040000Y-93540000D01*
X196580000Y-93870000D02*
X190040000Y-93870000D01*
X196580000Y-93540000D02*
X196580000Y-93870000D01*
X190040000Y-86630000D02*
X190040000Y-86960000D01*
X196580000Y-86630000D02*
X190040000Y-86630000D01*
X196580000Y-86960000D02*
X196580000Y-86630000D01*
X190040000Y-89370000D02*
X190040000Y-89040000D01*
X196580000Y-89370000D02*
X190040000Y-89370000D01*
X196580000Y-89040000D02*
X196580000Y-89370000D01*
X135920000Y-85130000D02*
X135920000Y-85460000D01*
X142460000Y-85130000D02*
X135920000Y-85130000D01*
X142460000Y-85460000D02*
X142460000Y-85130000D01*
X135920000Y-87870000D02*
X135920000Y-87540000D01*
X142460000Y-87870000D02*
X135920000Y-87870000D01*
X142460000Y-87540000D02*
X142460000Y-87870000D01*
X135920000Y-77130000D02*
X135920000Y-77460000D01*
X142460000Y-77130000D02*
X135920000Y-77130000D01*
X142460000Y-77460000D02*
X142460000Y-77130000D01*
X135920000Y-79870000D02*
X135920000Y-79540000D01*
X142460000Y-79870000D02*
X135920000Y-79870000D01*
X142460000Y-79540000D02*
X142460000Y-79870000D01*
X115420000Y-92130000D02*
X115420000Y-92460000D01*
X121960000Y-92130000D02*
X115420000Y-92130000D01*
X121960000Y-92460000D02*
X121960000Y-92130000D01*
X115420000Y-94870000D02*
X115420000Y-94540000D01*
X121960000Y-94870000D02*
X115420000Y-94870000D01*
X121960000Y-94540000D02*
X121960000Y-94870000D01*
X115420000Y-95630000D02*
X115420000Y-95960000D01*
X121960000Y-95630000D02*
X115420000Y-95630000D01*
X121960000Y-95960000D02*
X121960000Y-95630000D01*
X115420000Y-98370000D02*
X115420000Y-98040000D01*
X121960000Y-98370000D02*
X115420000Y-98370000D01*
X121960000Y-98040000D02*
X121960000Y-98370000D01*
M02*
